<svg width="48" height="50" viewBox="0 0 48 50" fill="none" xmlns="http://www.w3.org/2000/svg">
<rect x="5.20605" y="24.9706" width="4.64706" height="3.23529" rx="1.61765" stroke="#BDAE77"/>
<rect x="15.0884" y="11.7941" width="17.8235" height="4.17647" rx="1.5" stroke="#BDAE77"/>
<rect x="5.20605" y="0.5" width="4.64706" height="11.2353" rx="1.5" stroke="#BDAE77"/>
<rect x="38.147" y="0.5" width="4.64706" height="11.2353" rx="1.5" stroke="#BDAE77"/>
<rect x="5.20605" y="32.9706" width="4.64706" height="3.23529" rx="1.5" stroke="#BDAE77"/>
<rect x="5.20605" y="41.4412" width="4.64706" height="3.23529" rx="1.5" stroke="#BDAE77"/>
<rect x="16.0293" y="24.9706" width="4.64706" height="3.23529" rx="1.5" stroke="#BDAE77"/>
<rect x="16.0293" y="32.9706" width="4.64706" height="3.23529" rx="1.5" stroke="#BDAE77"/>
<rect x="16.0293" y="41.4412" width="4.64706" height="3.23529" rx="1.5" stroke="#BDAE77"/>
<rect x="27.3237" y="24.9706" width="4.64706" height="3.23529" rx="1.5" stroke="#BDAE77"/>
<rect x="27.3237" y="32.9706" width="4.64706" height="3.23529" rx="1.5" stroke="#BDAE77"/>
<rect x="38.147" y="24.9706" width="4.64706" height="3.23529" rx="1.5" stroke="#BDAE77"/>
<rect x="38.147" y="32.9706" width="4.64706" height="3.23529" rx="1.5" stroke="#BDAE77"/>
<path d="M0.5 20.5H47.5V44C47.5 47.0376 45.0376 49.5 42 49.5H6C2.96243 49.5 0.5 47.0376 0.5 44V20.5Z" stroke="#BDAE77"/>
<path d="M35.7646 42.5882L37.3001 43.8875C38.142 44.5998 39.4016 44.4963 40.1159 43.656L42.8235 40.4706" stroke="#BDAE77"/>
<path d="M25.8823 42.5882L27.4178 43.8875C28.2597 44.5998 29.5193 44.4963 30.2336 43.656L32.9411 40.4706" stroke="#BDAE77"/>
<path fill-rule="evenodd" clip-rule="evenodd" d="M37.6471 7H10.3529V8H37.6471V7ZM43.2941 8.16909C45.4282 8.73934 47 10.6861 47 13V44C47 46.7614 44.7614 49 42 49H6C3.23858 49 1 46.7614 1 44V13C1 10.6861 2.57177 8.73934 4.70588 8.16909V7.13992C2.01422 7.73164 0 10.1306 0 13V44C0 47.3137 2.68629 50 6 50H42C45.3137 50 48 47.3137 48 44V13C48 10.1306 45.9858 7.73164 43.2941 7.13992V8.16909Z" fill="#BDAE77"/>
</svg>
