<svg width="70" height="51" viewBox="0 0 70 51" fill="none" xmlns="http://www.w3.org/2000/svg">
<circle cx="34.5745" cy="11.1702" r="10.6702" stroke="#BDAE77"/>
<circle cx="56.3828" cy="14.8936" r="6.94681" stroke="#BDAE77"/>
<circle cx="12.7661" cy="14.8936" r="6.94681" stroke="#BDAE77"/>
<path d="M24.4683 42.5532V50" stroke="#BDAE77" stroke-linecap="round"/>
<path d="M5.31934 37.234V43.617" stroke="#BDAE77" stroke-linecap="round"/>
<path d="M63.8296 37.234V43.617" stroke="#BDAE77" stroke-linecap="round"/>
<path d="M44.6807 42.5532V50" stroke="#BDAE77" stroke-linecap="round"/>
<path fill-rule="evenodd" clip-rule="evenodd" d="M50.5637 50C50.2875 50 50.0637 49.7761 50.0637 49.5V42.0213C50.0637 33.4667 43.1289 26.5319 34.5743 26.5319C26.0198 26.5319 19.085 33.4667 19.085 42.0213V49.5C19.085 49.7761 18.8611 50 18.585 50V50C18.3088 50 18.085 49.7761 18.085 49.5V42.0213C18.085 32.9144 25.4675 25.5319 34.5743 25.5319C43.6811 25.5319 51.0637 32.9145 51.0637 42.0213V49.5C51.0637 49.7761 50.8398 50 50.5637 50V50Z" fill="#BDAE77"/>
<path fill-rule="evenodd" clip-rule="evenodd" d="M68.6488 43.617C68.925 43.617 69.1488 43.3932 69.1488 43.117V37.766C69.1488 31.0093 63.6714 25.5319 56.9148 25.5319C52.8272 25.5319 49.2079 27.5365 46.9862 30.6163C46.8572 30.7951 46.8761 31.0386 47.0208 31.205V31.205C47.2353 31.4516 47.6305 31.4306 47.8227 31.1663C49.8649 28.3578 53.1766 26.5319 56.9148 26.5319C63.1192 26.5319 68.1488 31.5616 68.1488 37.766V43.117C68.1488 43.3932 68.3727 43.617 68.6488 43.617V43.617Z" fill="#BDAE77"/>
<path fill-rule="evenodd" clip-rule="evenodd" d="M0.500112 43.617C0.223969 43.617 0.000111652 43.3932 0.000111652 43.117V37.766C0.000111652 31.0093 5.47748 25.5319 12.2342 25.5319C16.3217 25.5319 19.941 27.5365 22.1627 30.6163C22.2917 30.7951 22.2728 31.0386 22.1281 31.205V31.205C21.9136 31.4516 21.5184 31.4306 21.3262 31.1663C19.2841 28.3578 15.9723 26.5319 12.2342 26.5319C6.02977 26.5319 1.00011 31.5616 1.00011 37.766V43.117C1.00011 43.3932 0.776254 43.617 0.500112 43.617V43.617Z" fill="#BDAE77"/>
</svg>
