<svg width="58" height="52" viewBox="0 0 58 52" fill="none" xmlns="http://www.w3.org/2000/svg">
<path d="M7 37H2C1.44772 37 1 37.4477 1 38V50C1 50.5523 1.44772 51 2 51H7C7.55228 51 8 50.5523 8 50V38C8 37.4477 7.55228 37 7 37Z" stroke="#BDAE77" stroke-linecap="round"/>
<path d="M8 39H12.645C12.8746 39 13.0973 38.9209 13.2756 38.7761L20.7244 32.7239C20.9027 32.5791 21.1254 32.5 21.355 32.5H35.5C36.1667 32.5 37.4 32.9 37 34.5C36.6254 35.9984 35.6368 36.7367 35.1021 36.9613M27.5 37H34.8907C34.9631 37 35.0354 36.9893 35.1021 36.9613V36.9613M35.1021 36.9613L42.7613 36.9988C42.9182 36.9996 43.0731 36.9634 43.2135 36.8933L51 33C52.6667 32.1667 56.2 31 57 33C57.8 35 53.3333 37.8333 51 39L43.1465 43.9085C43.0495 43.969 42.9429 44.0125 42.8313 44.0371L18.1062 49.4766C18.0356 49.4922 17.9636 49.5 17.8913 49.5H8" stroke="#BDAE77" stroke-linecap="round"/>
<path d="M28.9755 3.08156L30.1574 6.71885C30.3582 7.33688 30.9341 7.75532 31.5839 7.75532H35.4084C35.8928 7.75532 36.0942 8.37513 35.7023 8.65983L32.6082 10.9078C32.0825 11.2898 31.8625 11.9668 32.0633 12.5848L33.2452 16.2221C33.3948 16.6828 32.8676 17.0659 32.4757 16.7812L29.3817 14.5332C28.8559 14.1512 28.1441 14.1512 27.6183 14.5332L24.5243 16.7812C24.1324 17.0659 23.6052 16.6828 23.7548 16.2221L24.9367 12.5848C25.1375 11.9668 24.9175 11.2898 24.3918 10.9078L21.2977 8.65983C20.9058 8.37513 21.1072 7.75532 21.5916 7.75532H25.4161C26.0659 7.75532 26.6418 7.33688 26.8426 6.71885L28.0245 3.08156C28.1741 2.6209 28.8259 2.62091 28.9755 3.08156Z" stroke="#BDAE77"/>
<path d="M44.9755 14.0816L45.4838 15.6459C45.6846 16.2639 46.2606 16.6824 46.9104 16.6824H48.5552C49.0396 16.6824 49.241 17.3022 48.8491 17.5869L47.5184 18.5537C46.9927 18.9357 46.7727 19.6127 46.9735 20.2307L47.4818 21.7951C47.6315 22.2557 47.1042 22.6388 46.7124 22.3541L45.3817 21.3873C44.8559 21.0053 44.1441 21.0053 43.6183 21.3873L42.2876 22.3541C41.8958 22.6388 41.3685 22.2557 41.5182 21.7951L42.0265 20.2307C42.2273 19.6127 42.0073 18.9357 41.4816 18.5537L40.1509 17.5869C39.759 17.3022 39.9604 16.6824 40.4448 16.6824H42.0896C42.7394 16.6824 43.3154 16.2639 43.5162 15.6459L44.0245 14.0816C44.1741 13.6209 44.8259 13.6209 44.9755 14.0816Z" stroke="#BDAE77"/>
<path d="M11.9755 14.0816L12.4838 15.6459C12.6846 16.2639 13.2606 16.6824 13.9104 16.6824H15.5552C16.0396 16.6824 16.241 17.3022 15.8491 17.5869L14.5184 18.5537C13.9927 18.9357 13.7727 19.6127 13.9735 20.2307L14.4818 21.7951C14.6315 22.2557 14.1042 22.6388 13.7124 22.3541L12.3817 21.3873C11.8559 21.0053 11.1441 21.0053 10.6183 21.3873L9.28762 22.3541C8.89576 22.6388 8.36852 22.2557 8.5182 21.7951L9.02648 20.2307C9.22729 19.6127 9.0073 18.9357 8.48157 18.5537L7.15087 17.5869C6.75901 17.3022 6.9604 16.6824 7.44476 16.6824H9.0896C9.73944 16.6824 10.3154 16.2639 10.5162 15.6459L11.0245 14.0816C11.1741 13.6209 11.8259 13.6209 11.9755 14.0816Z" stroke="#BDAE77"/>
</svg>
