<svg width="52" height="51" viewBox="0 0 52 51" fill="none" xmlns="http://www.w3.org/2000/svg">
<path d="M19.8954 43.9355H8.63184C8.07955 43.9355 7.63184 44.3833 7.63184 44.9355V48.7384C7.63184 49.2906 8.07955 49.7384 8.63184 49.7384H19.8954C20.4477 49.7384 20.8954 49.2906 20.8954 48.7384V44.9355C20.8954 44.3833 20.4477 43.9355 19.8954 43.9355Z" stroke="#BDAE77" stroke-linecap="round"/>
<path d="M20.0665 43.9355C20.0665 43.9355 20.0664 38.7481 20.0665 34.6377C20.0665 34.4824 20.0322 34.332 19.9597 34.1947C17.5249 29.5863 10.34 24.0121 9.39322 23.2897C9.32342 23.2364 9.24919 23.1936 9.16566 23.1665C8.61416 22.9882 7.64845 22.922 6.80281 23.5305M11.3622 32.3299L9.28982 30.2575C7.77004 29.014 4.97916 26.1126 5.97393 24.4547C6.21941 24.0456 6.50359 23.7458 6.80281 23.5305M6.80281 23.5305C6.80281 23.5305 6.80281 18.8946 6.80281 16.2865C6.80281 16.2048 6.79296 16.1229 6.77054 16.0443C5.86987 12.8862 1.48344 13.2922 1.01109 16.0938C1.00322 16.1404 1 16.1816 1 16.2289C1 17.119 1 27.0351 1 29.0141C1 30.8458 8.12342 37.2106 9.77821 38.6644C9.99654 38.8562 10.1187 39.1288 10.1187 39.4194V43.9355" stroke="#BDAE77" stroke-linecap="round"/>
<path d="M31.8429 44.1972H43.1064C43.6587 44.1972 44.1064 44.6449 44.1064 45.1972V49C44.1064 49.5523 43.6587 50 43.1064 50H31.8429C31.2906 50 30.8429 49.5523 30.8429 49V45.1972C30.8429 44.6449 31.2906 44.1972 31.8429 44.1972Z" stroke="#BDAE77" stroke-linecap="round"/>
<path d="M31.6718 44.1972C31.6718 44.1972 31.6719 39.0098 31.6718 34.8993C31.6718 34.744 31.7061 34.5936 31.7786 34.4564C34.2133 29.8479 41.3983 24.2737 42.3451 23.5513C42.4149 23.498 42.4891 23.4552 42.5726 23.4282C43.1241 23.2498 44.0898 23.1837 44.9355 23.7921M40.3761 32.5916L42.4485 30.5191C43.9682 29.2757 46.7591 26.3743 45.7643 24.7163C45.5189 24.3072 45.2347 24.0074 44.9355 23.7921M44.9355 23.7921C44.9355 23.7921 44.9355 19.1562 44.9355 16.5482C44.9355 16.4664 44.9453 16.3845 44.9677 16.3059C45.8684 13.1479 50.2548 13.5538 50.7272 16.3554C50.7351 16.402 50.7383 16.4432 50.7383 16.4905C50.7383 17.3806 50.7383 27.2967 50.7383 29.2757C50.7383 31.1074 43.6149 37.4722 41.9601 38.926C41.7417 39.1179 41.6196 39.3904 41.6196 39.681V44.1972" stroke="#BDAE77" stroke-linecap="round"/>
<circle cx="25.8692" cy="12.4346" r="11.9346" stroke="#BDAE77"/>
<path d="M20.4807 12.0201C19.6517 10.7766 19.2372 8.70421 21.7241 7.04626C23.7137 5.71991 25.4544 7.87523 25.869 7.87524C26.2836 7.87524 27.9416 5.8028 30.014 7.04626C32.0865 8.28972 32.5009 10.3622 31.2575 12.0201L26.6039 17.3896C26.2125 17.8412 25.5157 17.8518 25.1142 17.4091C23.4728 15.5993 21.0476 12.8706 20.4807 12.0201Z" stroke="#BDAE77" stroke-linecap="round"/>
</svg>
