<svg width="65" height="54" viewBox="0 0 65 54" fill="none" xmlns="http://www.w3.org/2000/svg">
<path d="M63.808 32.9178C65.2791 35.0265 64.8524 37.9883 62.8535 39.5402L48.6365 50.5934C46.0087 52.6311 42.8419 53.7329 39.574 53.7329H3.59355C1.60587 53.7329 0 52.0388 0 49.9419V42.3598C0 40.2629 1.60587 38.5688 3.59355 38.5688H7.72614L12.7683 34.3038C15.3175 32.1477 18.4843 30.9867 21.7522 30.9867H39.5291C41.5167 30.9867 43.1226 32.6808 43.1226 34.7777C43.1226 36.8746 41.5167 38.5688 39.5291 38.5688H30.5452C29.557 38.5688 28.7484 39.4217 28.7484 40.4643C28.7484 41.5068 29.557 42.3598 30.5452 42.3598H44.0884L57.5305 31.9108C59.5294 30.3588 62.3369 30.809 63.808 32.9178Z" fill="#BDAE77"/>
<path d="M33.2018 12.3419L41.1228 20.2344C41.4516 20.5619 41.8855 20.7444 42.3371 20.7444C42.7886 20.7444 43.2225 20.5619 43.5513 20.2344L51.4723 12.3419C52.8049 11.0179 53.5589 9.1605 53.5589 7.21894V6.94759C53.5589 3.67734 51.3452 0.888977 48.3249 0.350954C46.3261 -0.0046095 44.2921 0.692482 42.8631 2.21766L42.3371 2.77908L41.811 2.21766C40.382 0.692482 38.348 -0.0046095 36.3492 0.350954C33.3289 0.888977 31.1152 3.67734 31.1152 6.94759V7.21894C31.1152 9.1605 31.8692 11.0179 33.2018 12.3419Z" fill="#BDAE77"/>
</svg>
