<svg width="48" height="50" viewBox="0 0 48 50" fill="none" xmlns="http://www.w3.org/2000/svg">
<path d="M24.7427 1.60892L27.8088 4.42198C28.3429 4.91198 29.0634 5.14607 29.7835 5.06358L33.9175 4.58999C34.6909 4.50139 35.4035 5.01916 35.5583 5.78209L36.3854 9.86013C36.5294 10.5705 36.9747 11.1833 37.6058 11.5399L41.2286 13.5866C41.9064 13.9696 42.1786 14.8073 41.8553 15.5155L40.1275 19.3009C39.8265 19.9602 39.8265 20.7178 40.1275 21.3771L41.8553 25.1625C42.1786 25.8706 41.9064 26.7084 41.2286 27.0913L37.6058 29.1381C36.9747 29.4946 36.5294 30.1075 36.3854 30.8178L35.5583 34.8959C35.4036 35.6588 34.6909 36.1766 33.9175 36.088L29.7835 35.6144C29.0634 35.5319 28.3429 35.766 27.8088 36.256L24.7427 39.069C24.1691 39.5953 23.2882 39.5953 22.7146 39.069L19.6484 36.256C19.1144 35.766 18.3939 35.5319 17.6738 35.6144L13.5398 36.088C12.7664 36.1766 12.0537 35.6588 11.899 34.8959L11.0719 30.8178C10.9278 30.1075 10.4826 29.4946 9.85151 29.1381L6.22865 27.0913C5.55087 26.7084 5.27866 25.8706 5.60192 25.1625L7.32981 21.3771C7.63079 20.7178 7.63079 19.9602 7.32981 19.3009L5.60192 15.5155C5.27866 14.8073 5.55087 13.9696 6.22864 13.5866L9.85151 11.5399C10.4826 11.1833 10.9278 10.5705 11.0719 9.86013L11.899 5.7821C12.0537 5.01916 12.7664 4.50139 13.5398 4.58999L17.6738 5.06358C18.3939 5.14607 19.1144 4.91198 19.6484 4.42198L22.7146 1.60892C23.2882 1.08264 24.1691 1.08264 24.7427 1.60892Z" stroke="#BDAE77"/>
<circle cx="23.729" cy="20.339" r="7.97458" stroke="#BDAE77"/>
<path d="M6.35593 33.8983L1.06591 41.657C0.613314 42.3208 1.08872 43.2203 1.89214 43.2203H6.16163C6.5404 43.2203 6.88666 43.4343 7.05605 43.7731L9.39886 48.4587C9.74224 49.1455 10.6994 49.2051 11.1253 48.5662L16.1017 41.1017" stroke="#BDAE77" stroke-linecap="round"/>
<path d="M41.1016 33.8983L46.3916 41.657C46.8442 42.3208 46.3688 43.2203 45.5654 43.2203H41.2959C40.9171 43.2203 40.5709 43.4343 40.4015 43.7731L38.0587 48.4587C37.7153 49.1455 36.7581 49.2051 36.3322 48.5662L31.3558 41.1017" stroke="#BDAE77" stroke-linecap="round"/>
</svg>
