<svg width="58" height="54" viewBox="0 0 58 54" fill="none" xmlns="http://www.w3.org/2000/svg">
<path d="M40.8923 12.9345C40.8923 18.7224 33.5658 29.0367 30.3485 33.2875C29.5768 34.3052 28.1435 34.3052 27.3818 33.2875C24.1646 29.0367 16.838 18.7224 16.838 12.9345C16.838 5.90635 22.2202 0.213867 28.8652 0.213867C35.5102 0.213867 40.8923 5.90635 40.8923 12.9345ZM41.6941 21.4573C42.0449 20.7259 42.3657 19.9945 42.6563 19.2736C42.7064 19.1464 42.7565 19.0086 42.8067 18.8814L54.4329 13.9628C56.0165 13.2949 57.7304 14.5246 57.7304 16.3267V45.0329C57.7304 46.0717 57.129 47.0046 56.2169 47.3968L41.6941 53.5345V21.4573ZM13.7911 14.8744C14.0317 16.3691 14.5128 17.8743 15.074 19.2736C15.3647 19.9945 15.6854 20.7259 16.0362 21.4573V48.107L3.29745 53.5027C1.71387 54.1706 0 52.9409 0 51.1388V22.4326C0 21.3937 0.601358 20.4609 1.51342 20.0687L13.8012 14.8744H13.7911ZM32.8542 35.4076C34.2473 33.5631 36.4323 30.5632 38.4869 27.2452V53.6723L19.2435 47.8526V27.2452C21.2981 30.5632 23.483 33.5631 24.8762 35.4076C26.9308 38.1214 30.7995 38.1214 32.8542 35.4076ZM28.8652 16.3267C29.9284 16.3267 30.9482 15.8799 31.7 15.0847C32.4518 14.2895 32.8742 13.211 32.8742 12.0865C32.8742 10.9619 32.4518 9.88337 31.7 9.08818C30.9482 8.29298 29.9284 7.84625 28.8652 7.84625C27.8019 7.84625 26.7822 8.29298 26.0303 9.08818C25.2785 9.88337 24.8561 10.9619 24.8561 12.0865C24.8561 13.211 25.2785 14.2895 26.0303 15.0847C26.7822 15.8799 27.8019 16.3267 28.8652 16.3267Z" fill="#BDAE77"/>
</svg>
