<svg width="67" height="55" viewBox="0 0 67 55" fill="none" xmlns="http://www.w3.org/2000/svg">
<path d="M64.5543 33.5479C66.0426 35.6645 65.6109 38.6372 63.5886 40.195L49.2053 51.2893C46.5468 53.3345 43.3429 54.4404 40.0368 54.4404H3.63558C1.62465 54.4404 0 52.74 0 50.6353V43.025C0 40.9203 1.62465 39.2199 3.63558 39.2199H7.8165L12.9177 34.9391C15.4967 32.775 18.7005 31.6096 22.0066 31.6096H39.9914C42.0023 31.6096 43.627 33.3101 43.627 35.4148C43.627 37.5195 42.0023 39.2199 39.9914 39.2199H30.9024C29.9027 39.2199 29.0846 40.076 29.0846 41.1225C29.0846 42.1689 29.9027 43.025 30.9024 43.025H44.604L58.2034 32.5371C60.2257 30.9794 63.066 31.4313 64.5543 33.5479Z" fill="#BDAE77"/>
<path d="M37.3086 4.67499C38.617 2.20228 39.2699 0.967285 40.248 0.967285C41.2261 0.967285 41.879 2.20228 43.1875 4.67499L43.523 5.31425C43.8972 6.0188 44.083 6.36971 44.372 6.60093C44.6611 6.83215 45.0224 6.9192 45.745 7.09057L46.4005 7.24835C48.9399 7.85225 50.2096 8.15691 50.5116 9.17973C50.8135 10.2025 49.949 11.2716 48.2173 13.4043L47.7683 13.9565C47.2779 14.5631 47.0328 14.8651 46.9218 15.2405C46.8108 15.6158 46.8469 16.0212 46.9218 16.8291L46.9889 17.5635C47.2521 20.4117 47.3812 21.8343 46.5914 22.4682C45.8017 23.102 44.612 22.5226 42.2352 21.3692L41.6184 21.07C40.9448 20.7435 40.6067 20.5803 40.248 20.5803C39.8893 20.5803 39.5512 20.7435 38.8776 21.07L38.2608 21.3692C35.8866 22.5253 34.6943 23.102 33.9046 22.4682C33.1149 21.8343 33.2439 20.4117 33.5071 17.5663L33.5742 16.8291C33.6491 16.0212 33.6852 15.6158 33.5742 15.2405C33.4633 14.8651 33.2181 14.5604 32.7278 13.9565L32.2787 13.4043C30.5496 11.2716 29.6825 10.2025 29.9844 9.17973C30.2864 8.15691 31.5561 7.85225 34.0955 7.24835L34.7511 7.09057C35.4737 6.9192 35.835 6.83215 36.124 6.60093C36.413 6.36971 36.5989 6.0188 36.9705 5.31425L37.3086 4.67499ZM59.4228 16.4238C60.0784 15.186 60.4035 14.5686 60.8939 14.5686C61.3842 14.5686 61.7094 15.186 62.3649 16.4238L62.5326 16.742C62.7184 17.0957 62.8113 17.2698 62.9559 17.3867C63.1004 17.501 63.281 17.5445 63.6423 17.6316L63.9701 17.7077C65.2398 18.0124 65.8747 18.162 66.0244 18.6761C66.1766 19.1875 65.7431 19.7207 64.8785 20.7871L64.654 21.0618C64.4088 21.3665 64.2849 21.5188 64.2307 21.7065C64.174 21.8915 64.1946 22.0955 64.2307 22.5008L64.2643 22.868C64.3933 24.2907 64.4604 25.0034 64.0656 25.319C63.6707 25.6345 63.0772 25.3462 61.8874 24.7695L61.5778 24.6199C61.2423 24.4567 61.0719 24.3751 60.8939 24.3751C60.7132 24.3751 60.5455 24.4567 60.2074 24.6199L59.9003 24.7695C58.7131 25.3462 58.1196 25.6345 57.7221 25.319C57.3273 25.0034 57.3918 24.2907 57.5234 22.868L57.557 22.5008C57.5931 22.0928 57.6138 21.8915 57.557 21.7065C57.5028 21.5161 57.3789 21.3665 57.1337 21.0618L56.9092 20.7871C56.0447 19.7207 55.6111 19.1875 55.7634 18.6761C55.913 18.162 56.5479 18.0124 57.8176 17.7077L58.1454 17.6316C58.5067 17.5445 58.6873 17.501 58.8319 17.3867C58.9764 17.2698 59.0693 17.0929 59.2551 16.742L59.4228 16.4238ZM18.1311 16.4238C18.7892 15.186 19.1118 14.5686 19.6022 14.5686C20.0925 14.5686 20.4177 15.186 21.0732 16.4238L21.2409 16.742C21.4267 17.0957 21.5196 17.2698 21.6642 17.3867C21.8087 17.501 21.9893 17.5445 22.3506 17.6316L22.6784 17.7077C23.9481 18.0124 24.583 18.162 24.7352 18.6761C24.8849 19.1875 24.4514 19.7207 23.5868 20.7871L23.3623 21.0618C23.1171 21.3665 22.9932 21.5188 22.939 21.7065C22.8823 21.8915 22.9029 22.0955 22.939 22.5008L22.9726 22.868C23.1016 24.2907 23.1687 25.0034 22.7739 25.319C22.379 25.6345 21.7829 25.3462 20.5957 24.7695L20.2861 24.6199C19.9506 24.4567 19.7802 24.3751 19.6022 24.3751C19.4215 24.3751 19.2538 24.4567 18.9157 24.6199L18.6086 24.7695C17.4214 25.3462 16.8279 25.6345 16.4304 25.319C16.0356 25.0034 16.1001 24.2907 16.2317 22.868L16.2653 22.5008C16.3014 22.0928 16.322 21.8915 16.2653 21.7065C16.2111 21.5161 16.0872 21.3665 15.842 21.0618L15.6175 20.7871C14.753 19.7207 14.3194 19.1875 14.4691 18.6761C14.6213 18.162 15.2562 18.0124 16.5259 17.7077L16.8537 17.6316C17.215 17.5445 17.3956 17.501 17.5402 17.3867C17.6847 17.2698 17.7776 17.0929 17.9634 16.742L18.1311 16.4238Z" fill="#BDAE77"/>
</svg>
