<svg width="41" height="54" viewBox="0 0 41 54" fill="none" xmlns="http://www.w3.org/2000/svg">
<path d="M4.01157 10.3597L5.6044 17.4729L4.01157 24.5553L9.94043 28.3902L13.5685 34.6066L20.3528 32.9365L27.1371 34.6066L30.7652 28.3902L36.694 24.5553L35.1012 17.4729L36.694 10.3597L30.7947 6.52472L27.1371 0.30835L20.3528 2.00935L13.598 0.339277L9.91093 6.52472L4.01157 10.3597ZM20.3823 29.9675C17.2531 29.9675 14.252 28.6642 12.0393 26.3442C9.82665 24.0242 8.58358 20.8776 8.58358 17.5967C8.58358 14.3157 9.82665 11.1691 12.0393 8.84912C14.252 6.52913 17.2531 5.22577 20.3823 5.22577C26.8716 5.22577 32.1515 10.7617 32.1515 17.5657C32.1515 24.4316 26.8716 29.9675 20.3823 29.9675ZM20.3233 26.8748C15.4268 26.8748 11.5038 22.7306 11.5038 17.5967C11.5038 12.4937 15.4268 8.31849 20.3233 8.31849C25.2198 8.31849 29.2019 12.4937 29.2019 17.5967C29.2019 22.7306 25.2198 26.8748 20.3233 26.8748ZM31.6501 30.2768L27.8745 37.2045L21.7392 35.7509L29.2019 53.7815L33.3314 46.9775H40.7056L31.6501 30.2768ZM8.93754 30.4933L12.6246 37.4519L18.9075 35.8746L11.5038 53.7815L7.3742 46.9775H0L8.93754 30.4933Z" fill="#BDAE77"/>
</svg>
