<svg width="58" height="54" viewBox="0 0 58 54" fill="none" xmlns="http://www.w3.org/2000/svg">
<path d="M28.56 0.165405C26.3958 0.165405 24.3203 1.06681 22.79 2.67131C21.2597 4.27582 20.4 6.45199 20.4 8.7211V10.1799C10.8936 13.7048 4.08 23.2145 4.08 34.3882C4.08 34.9555 4.29493 35.4995 4.6775 35.9006C5.06008 36.3018 5.57896 36.5271 6.12 36.5271H51C51.541 36.5271 52.0599 36.3018 52.4425 35.9006C52.8251 35.4995 53.04 34.9555 53.04 34.3882C53.0406 29.0791 51.4716 23.9004 48.5489 19.565C45.6262 15.2296 41.4936 11.9507 36.72 10.1799V8.7211C36.72 6.45199 35.8603 4.27582 34.33 2.67131C32.7997 1.06681 30.7242 0.165405 28.56 0.165405ZM26.52 19.4157C26.52 18.8484 26.7349 18.3044 27.1175 17.9033C27.5001 17.5022 28.019 17.2768 28.56 17.2768C34.1088 17.2768 39.0048 20.1815 41.9546 24.609C42.1144 24.8391 42.2288 25.1002 42.2911 25.3771C42.3535 25.6541 42.3624 25.9413 42.3176 26.222C42.2727 26.5026 42.1749 26.771 42.0298 27.0115C41.8847 27.252 41.6954 27.4598 41.4728 27.6226C41.2502 27.7854 40.9988 27.9 40.7335 27.9596C40.4681 28.0193 40.1941 28.0229 39.9274 27.9701C39.6607 27.9173 39.4067 27.8093 39.1803 27.6523C38.954 27.4954 38.7597 27.2926 38.609 27.056C37.4822 25.3563 35.9796 23.9681 34.2295 23.01C32.4795 22.052 30.5342 21.5526 28.56 21.5547C28.019 21.5547 27.5001 21.3293 27.1175 20.9282C26.7349 20.527 26.52 19.983 26.52 19.4157ZM6.12 40.805C4.49688 40.805 2.94023 41.481 1.79251 42.6844C0.644784 43.8878 0 45.5199 0 47.2217C0 48.9236 0.644784 50.5557 1.79251 51.7591C2.94023 52.9625 4.49688 53.6385 6.12 53.6385H51C52.6231 53.6385 54.1798 52.9625 55.3275 51.7591C56.4752 50.5557 57.12 48.9236 57.12 47.2217C57.12 45.5199 56.4752 43.8878 55.3275 42.6844C54.1798 41.481 52.6231 40.805 51 40.805H6.12Z" fill="#BDAE77"/>
</svg>
