<svg width="59" height="52" viewBox="0 0 59 52" fill="none" xmlns="http://www.w3.org/2000/svg">
<path d="M18.4783 26.5435L8.48298 31.2781C8.26937 31.3793 8.09851 31.5528 8.0007 31.768L1.08953 46.9726C0.708887 47.81 1.56545 48.6738 2.40603 48.3002L14.6739 42.8478M14.6739 42.8478L29.8913 51M14.6739 42.8478L19.0217 32.5217M29.8913 51L44.5652 42.8478M29.8913 51V42.8478M44.5652 42.8478L56.47 47.8844C57.2908 48.2317 58.1215 47.4128 57.7861 46.5871L51.777 31.7955C51.6827 31.5635 51.5049 31.3753 51.2786 31.2681L41.3043 26.5435M44.5652 42.8478L40.7609 32.5217M41.3043 14.0435C40.3103 18.0196 34.3165 29.2682 30.8049 36.1504C30.4281 36.8889 29.3663 36.8839 28.997 36.1416C25.4596 29.0332 19.2753 17.2315 18.4783 14.0435C17.3913 9.69565 20.6522 1 29.8913 1C38.587 1 42.3913 8.6087 41.3043 14.0435Z" stroke="#BDAE77" stroke-linecap="round"/>
<circle cx="29.8914" cy="11.8696" r="6.02174" stroke="#BDAE77"/>
</svg>
