<svg width="48" height="51" viewBox="0 0 48 51" fill="none" xmlns="http://www.w3.org/2000/svg">
<path d="M15.433 33.5052L13.747 30.5546C13.5247 30.1657 13.0708 29.972 12.6362 30.0806L8.2165 31.1856M1 50C1.34364 46.3918 1.75318 38.4621 2.54639 36.0825C3.06186 34.5361 3.72753 33.4986 5.12371 32.4742C6.17868 31.7002 8.2165 31.1856 8.2165 31.1856M10.2784 50C10.4502 46.2199 10.5876 38.0412 9.76289 35.567C8.93814 33.0928 8.38832 31.6151 8.2165 31.1856" stroke="#BDAE77" stroke-linecap="round"/>
<path d="M32.9586 33.5052L34.6446 30.5546C34.8669 30.1657 35.3208 29.972 35.7554 30.0806L40.1751 31.1856M47.3916 50C47.048 46.3918 46.6384 38.4621 45.8452 36.0825C45.3297 34.5361 44.6641 33.4986 43.2679 32.4742C42.2129 31.7002 40.1751 31.1856 40.1751 31.1856M38.1133 50C37.9414 46.2199 37.804 38.0412 38.6287 35.567C39.4535 33.0928 40.0033 31.6151 40.1751 31.1856" stroke="#BDAE77" stroke-linecap="round"/>
<path d="M19.5568 40.2062L23.3738 45.7196C23.7714 46.294 24.6205 46.294 25.0182 45.7196L28.8352 40.2062M20.0892 36.0475L28.3027 30.4474C28.9666 29.9948 29.8661 30.4702 29.8661 31.2736V35.2213C29.8661 36.0247 28.9666 36.5001 28.3027 36.0475L20.0892 30.4474C19.4254 29.9948 18.5259 30.4702 18.5259 31.2736V35.2213C18.5259 36.0247 19.4254 36.5001 20.0892 36.0475Z" stroke="#BDAE77" stroke-linecap="round"/>
<path d="M33.4951 13.8468C32.9488 17.6719 31.8688 21.073 30.2883 23.5032C28.7126 25.926 26.6779 27.3351 24.1963 27.3351C21.7187 27.3351 19.6647 25.8862 18.077 23.4373C16.4866 20.9842 15.407 17.5827 14.8979 13.85C14.1356 8.26147 15.2322 4.96087 17.0528 3.0512C18.8834 1.13107 21.5554 0.5 24.1963 0.5C26.8172 0.5 29.4954 1.24982 31.3341 3.23889C33.1639 5.21829 34.255 8.52624 33.4951 13.8468Z" stroke="#BDAE77"/>
</svg>
