<svg width="95" height="101" viewBox="0 0 95 101" fill="none" xmlns="http://www.w3.org/2000/svg">
<circle cx="47.5" cy="47.5" r="47.5" fill="#BDAE77"/>
<g filter="url(#filter0_d_107_570)">
<path d="M82.909 47.4999C82.909 67.0558 67.0558 82.909 47.4999 82.909C27.944 82.909 12.0908 67.0558 12.0908 47.4999C12.0908 27.944 27.944 12.0908 47.4999 12.0908C67.0558 12.0908 82.909 27.944 82.909 47.4999Z" fill="url(#paint0_linear_107_570)"/>
</g>
<g filter="url(#filter1_ddd_107_570)">
<path fill-rule="evenodd" clip-rule="evenodd" d="M47.4996 86.798C69.2032 86.798 86.7975 69.2037 86.7975 47.5001C86.7975 25.7964 69.2032 8.20215 47.4996 8.20215C25.7959 8.20215 8.20166 25.7964 8.20166 47.5001C8.20166 69.2037 25.7959 86.798 47.4996 86.798ZM47.5002 84.6364C68.01 84.6364 84.6365 68.0099 84.6365 47.5C84.6365 26.9902 68.01 10.3637 47.5002 10.3637C26.9903 10.3637 10.3638 26.9902 10.3638 47.5C10.3638 68.0099 26.9903 84.6364 47.5002 84.6364Z" fill="url(#paint1_radial_107_570)" shape-rendering="crispEdges"/>
</g>
<g filter="url(#filter2_d_107_570)">
<path d="M56.96 54.004C51.279 51.4881 43.5015 53.2939 40.3229 54.5112C40.5089 53.3108 40.5055 50.4331 39.0041 48.5259C36.6709 48.7288 32.3057 49.4727 29.3638 44.0454C26.7729 37.1363 33.1879 34.6617 36.1636 34.6279C35.9776 34.5095 36.0825 33.7149 37.9897 31.483C44.8179 23.9535 53.4601 29.4034 56.1992 32.3961C59.3947 31.8888 62.1292 31.8498 64.5684 35.2365C66.7395 38.2509 65.938 41.6952 65.1264 43.1493C64.1796 44.671 61.4541 47.6738 58.1266 47.5115C56.5441 49.6215 56.8248 52.178 57.1629 53.1924C57.2643 53.4291 57.3658 53.9228 56.96 54.004Z" fill="white"/>
<path d="M56.96 54.004C51.279 51.4881 43.5015 53.2939 40.3229 54.5112C40.5089 53.3108 40.5055 50.4331 39.0041 48.5259C36.6709 48.7288 32.3057 49.4727 29.3638 44.0454C26.7729 37.1363 33.1879 34.6617 36.1636 34.6279C35.9776 34.5095 36.0825 33.7149 37.9897 31.483C44.8179 23.9535 53.4601 29.4034 56.1992 32.3961C59.3947 31.8888 62.1292 31.8498 64.5684 35.2365C66.7395 38.2509 65.938 41.6952 65.1264 43.1493C64.1796 44.671 61.4541 47.6738 58.1266 47.5115C56.5441 49.6215 56.8248 52.178 57.1629 53.1924C57.2643 53.4291 57.3658 53.9228 56.96 54.004Z" stroke="#0E1815"/>
</g>
<g filter="url(#filter3_d_107_570)">
<path d="M38.1901 60.0662C37.0133 58.9301 38.6804 57.8006 39.6611 57.3779C36.3134 57.3779 36.3134 60.2184 37.3278 61.2329C38.3423 62.2473 39.2553 63.0589 43.4146 63.0082C46.742 62.9676 48.5545 61.1314 49.0448 60.2184C48.9941 60.3199 49.2578 60.6952 50.7187 61.385C54.0664 62.7038 57.5663 62.1459 60.0009 59.7619C61.2589 57.2461 58.7329 56.448 57.3126 56.3635C58.2595 56.5495 59.9198 57.2866 58.9865 58.7474C58.0532 60.2083 54.6074 57.7668 53.0012 56.3635C52.308 55.8055 50.465 55.136 48.639 56.9214C47.2999 55.2983 45.2744 56.1099 44.429 56.7185C42.8397 58.3079 39.3669 61.2024 38.1901 60.0662Z" fill="#46210B"/>
</g>
<path d="M41.9666 41.2213C44.1884 34.9384 39.3004 33.8645 36.5786 34.1129V34.6861C43.8552 35.6034 41.6333 41.2786 41.9666 41.2213Z" fill="#D0DDD7"/>
<path d="M52.0365 41.6426C56.7181 38.2971 54.4093 33.25 53.0345 31.3978C50.1238 27.4762 54.2515 30.515 55.2729 31.5226C56.5497 32.7822 58.7461 36.0891 55.8294 39.7837C54.4679 41.5083 52.0365 42.1464 52.0365 41.6426Z" fill="#D0DDD7"/>
<path d="M58.1417 45.6062C49.2892 44.1148 42.359 46.2276 40.0005 47.4704C42.093 46.6978 47.6719 45.3442 53.2473 46.11C59.2057 47.5208 60.0102 47.5402 62.6138 45.6062C65.0349 43.8076 65.9065 41.3879 65.6365 39.2955C65.1223 41.3276 62.8659 45.0822 58.1417 45.6062Z" fill="#D0DDD7"/>
<path d="M55.5182 51.9056C49.5339 49.7292 42.7497 51.8182 41.0225 53.9773C50.9641 51.1368 53.7798 52.8962 56.7203 53.4403C56.3901 51.9366 56.9504 48.6331 57.8634 47.5C57.5623 47.4429 57.1587 47.6417 56.292 47.4043C56.5396 47.6022 56.4984 48.0803 56.4468 48.2947C56.4468 48.4596 56.2611 49.4126 55.5182 51.9056Z" fill="#D0DDD7"/>
<path d="M36.7354 34.7239C36.8875 34.8253 42.8728 36.2456 41.3511 40.8106" stroke="#0E1815" stroke-linecap="round"/>
<path d="M53.3901 30.0635C57.1838 31.9975 60.808 39.2985 52.3486 42.1142" stroke="#0E1815" stroke-linecap="round"/>
<g filter="url(#filter4_dd_107_570)">
<path d="M57.864 47.5C54.7623 46.1965 47.4019 44.3717 40.5913 47.5" stroke="#0E1815" stroke-linecap="round"/>
</g>
<path d="M56.96 54.004C51.279 51.4881 43.5015 53.2939 40.3229 54.5112C40.5089 53.3108 40.5055 50.4331 39.0041 48.5259C36.6708 48.7288 32.3057 49.4727 29.3638 44.0454C26.7729 37.5681 33.1879 34.6617 36.1636 34.6279C35.9776 34.5095 36.0825 33.7149 37.9896 31.483C44.8179 23.9535 53.4601 29.4034 56.1992 32.3961C59.3947 31.8888 62.1292 31.8498 64.5684 35.2365C66.7395 38.2509 65.938 41.6952 65.1264 43.1493C64.1796 44.671 61.454 47.6738 58.1266 47.5115C56.5441 49.6215 56.8247 52.178 57.1629 53.1924C57.2643 53.4291 57.3658 53.9228 56.96 54.004Z" stroke="#0E1815"/>
<g filter="url(#filter5_d_107_570)">
<path d="M75.1474 53.4408C74.5387 54.2118 74.2513 55.2161 74.1836 55.6219C74.1504 55.7842 74.2374 56.0277 74.2851 56.1292L76.2126 59.2232C76.3816 59.4769 76.5676 60.2073 75.9589 61.1C76.1111 61.9116 75.9589 62.8246 75.1474 63.484C75.0967 63.9912 75.0967 64.752 73.93 65.31C73.93 65.7665 73.5242 67.3389 72.2054 67.7954C70.8258 67.9983 69.0944 67.3389 68.4012 66.9838C68.435 67.1867 68.4012 67.8461 67.9954 68.3534C66.7781 69.4185 66.2201 68.2519 66.1187 67.7954C66.0435 67.457 66.2371 66.5781 66.3723 66.1723C66.3047 66.1554 66.0274 66.0201 65.4593 65.6143C63.9376 64.9549 63.9376 63.0782 64.8506 61.9623C64.6477 61.5565 64.5463 60.4913 65.2057 59.4261C64.9216 57.803 65.4931 57.0591 65.8144 56.89C65.8144 56.8562 65.6622 56.4335 65.6622 55.9263C65.6622 53.6133 69.3819 53.3056 71.2417 53.4408L72.0533 50.854C72.3069 50.2791 73.0475 49.1294 73.9808 49.1294C74.9141 49.1294 75.6909 50.2043 75.8575 50.854C76.0241 51.5036 75.7561 52.6699 75.1474 53.4408Z" fill="white"/>
<path d="M72.8502 52.8825C73.0936 50.7724 74.169 50.0082 74.6762 49.8899L74.2704 49.4333L72.7487 50.6507L71.6328 53.9984C72.1062 54.2689 73.0936 54.8201 73.2559 54.8607C73.4183 54.9013 73.3236 54.6409 73.2559 54.5056C73.0531 54.2013 72.6879 53.4506 72.8502 52.8825Z" fill="#D0DDD7"/>
<path d="M77.0244 32.2289C75.9693 30.9304 73.5245 30.6565 72.4593 31.0116C70.4304 31.8231 69.5174 32.6347 69.0102 38.0113C68.3609 41.7851 70.4304 43.2696 71.5463 43.5401C70.7855 46.8371 69.3145 53.4311 69.5174 53.4311H70.7855C71.1743 51.9094 72.1651 47.8719 73.0173 43.8952C74.894 43.7937 75.9085 42.9822 76.4157 42.3228C76.9229 41.6634 78.0896 38.265 78.2417 36.3882C78.3939 34.5115 78.3432 33.8521 77.0244 32.2289Z" fill="#46210B"/>
<path d="M67.5243 55.8247C66.9156 55.2566 67.2707 54.7088 67.5243 54.5059C65.82 54.5059 65.9012 56.1966 66.1548 57.042C65.9519 57.2111 66.0229 57.3463 67.9301 56.5348C69.8373 55.7232 71.8357 57.2787 72.5966 58.1579C72.4106 57.8874 71.856 57.1333 71.1256 56.2812C70.2126 55.216 69.1981 55.7739 67.5243 55.8247Z" fill="#D0DDD7"/>
<path d="M66.4085 58.0052C66.2056 57.7211 66.5268 57.3458 66.7128 57.1936H65.9012L65.4955 58.1066C65.2757 58.6308 65.181 59.5674 66.5607 59.1211C67.9403 58.6747 68.9615 58.9689 69.2997 59.1718C69.976 59.8143 71.146 60.7848 70.4156 59.5269C69.5026 57.9544 68.2345 58.1573 67.7273 58.2081C67.2201 58.2588 66.6621 58.3602 66.4085 58.0052Z" fill="#D0DDD7"/>
<path d="M65.952 60.6428C65.6273 60.237 65.952 59.865 66.1549 59.7297L65.1911 60.0341C65.1742 60.592 65.1505 61.7181 65.1911 61.7587C65.2317 61.7992 66.0534 61.877 66.4592 61.9108L68.5388 63.1282C68.6403 63.1789 68.7519 63.0977 68.3867 62.3673C68.0215 61.6369 67.2877 61.2852 66.9664 61.2007C66.7635 61.1838 66.2766 61.0485 65.952 60.6428Z" fill="#D0DDD7"/>
<path fill-rule="evenodd" clip-rule="evenodd" d="M75.1474 53.4306C74.5387 54.2016 74.2513 55.2059 74.1836 55.6117C74.1504 55.774 74.2374 56.0175 74.2851 56.1189L76.2126 59.213C76.3816 59.4666 76.5676 60.197 75.9589 61.0897C76.1111 61.9013 75.9589 62.8143 75.1474 63.4737C75.1444 63.5035 75.1416 63.5341 75.1387 63.5656C75.0926 64.0696 75.0282 64.7745 73.93 65.2997C73.93 65.7562 73.5242 67.3287 72.2054 67.7852C70.8258 67.9881 69.0944 67.3287 68.4012 66.9736C68.435 67.1765 68.4012 67.8359 67.9954 68.3431C66.7781 69.4083 66.2201 68.2417 66.1187 67.7852C66.0435 67.4467 66.2371 66.5678 66.3723 66.162C66.3047 66.1451 66.0274 66.0099 65.4593 65.6041C63.9376 64.9447 63.9376 63.0679 64.8506 61.952C64.6477 61.5462 64.5463 60.4811 65.2057 59.4159C64.9216 57.7928 65.4931 57.0488 65.8144 56.8797C65.8144 56.8728 65.808 56.8495 65.7978 56.8124C65.7583 56.6689 65.6622 56.3191 65.6622 55.916C65.6622 53.603 69.3819 53.2953 71.2417 53.4306L72.0533 50.8437C72.3069 50.2689 73.0475 49.1191 73.9808 49.1191C74.9141 49.1191 75.6909 50.194 75.8575 50.8437C76.0241 51.4934 75.7561 52.6596 75.1474 53.4306ZM71.5971 67.1769C70.3897 67.146 69.637 66.7785 69.1453 66.5384C68.9924 66.4638 68.8648 66.4014 68.7566 66.3654C66.6929 65.7692 65.9975 65.173 65.4332 64.6893L65.4332 64.6893C65.3734 64.638 65.315 64.588 65.2567 64.5393C64.7751 63.7367 64.8968 63.4739 65.0942 63.0474C65.1463 62.9349 65.2037 62.8109 65.2567 62.6626C65.5103 61.9525 66.2204 62.1046 66.5755 62.2568C66.7176 62.3177 67.2334 62.6142 67.814 62.948L67.8141 62.948L67.8141 62.948C68.6843 63.4482 69.7001 64.0321 69.8218 64.0321C69.8492 64.0321 69.8748 64.033 69.8982 64.0339L69.8983 64.0339C70.0484 64.0393 70.1124 64.0417 70.0246 63.7785C69.4041 63.4682 68.2448 62.5489 67.5019 61.9598L67.5019 61.9598C67.1517 61.6821 66.8941 61.4777 66.8291 61.4452C66.6668 61.3641 65.9499 61.31 65.6118 61.3438C65.561 61.31 65.4799 61.1105 65.561 60.583C65.6625 59.9236 67.0827 59.2134 67.8943 59.2134C68.9313 59.1366 70.3465 60.5432 71.1046 61.2967L71.1046 61.2967C71.3477 61.5382 71.5232 61.7126 71.5971 61.7496C71.8886 61.8953 71.9009 61.8084 71.946 61.4887L71.9521 61.4452C71.7086 60.9177 69.9544 59.2134 69.0102 58.6555C68.6382 58.4357 67.4885 58.2294 65.8654 59.1627C65.7132 58.5033 66.0175 57.641 66.2204 57.4381C66.4233 57.2352 68.0055 56.5836 69.8218 56.7787C71.0106 56.9065 71.9692 58.0554 72.5157 58.7104C72.7387 58.9777 72.8931 59.1627 72.9666 59.1627C73.1695 59.1627 73.1864 58.9936 73.1695 58.9091C72.5608 57.7425 71.0898 56.4947 70.2783 56.1701C69.4667 55.8454 67.4209 56.2039 66.5755 56.4744C66.4571 56.3899 66.2712 55.3585 66.8291 54.9527C69.9131 53.0861 72.341 54.6146 73.1695 55.6121C74.0656 56.9309 75.8273 59.6801 75.7056 60.1265C75.6176 60.4493 75.4107 60.6702 75.2716 60.8188C75.1702 60.9269 75.1049 60.9967 75.1477 61.0395C75.2491 61.1409 75.5027 61.496 75.3506 62.1046C75.2315 62.581 74.6819 62.9344 74.4048 63.0603C74.5403 63.0071 74.7331 63.0917 74.539 63.8292C74.3361 64.6002 73.5414 64.7591 73.1695 64.7422C73.3047 65.5707 73.1796 67.2175 71.5971 67.1769ZM74.1688 49.7885C73.8644 49.7885 73.1442 50.1232 72.6978 51.4623C72.4813 52.1119 72.3029 52.5705 72.1747 52.9004C71.9724 53.4206 71.8946 53.6207 71.9877 53.7448C72.0394 53.8137 72.1612 53.8592 72.3215 53.9191C72.6332 54.0355 73.0902 54.2061 73.4587 54.7086C73.7407 55.0931 73.8408 55.2726 73.8408 55.2726C73.8408 55.2726 74.2804 53.7144 74.7267 53.1869C75.2847 52.5275 75.3274 51.3999 75.2847 51.1072C75.1363 50.0908 74.8789 49.7885 74.1688 49.7885Z" fill="#46210B"/>
</g>
<g filter="url(#filter6_d_107_570)">
<path d="M25.5617 53.0015C24.9125 53.2855 24.1753 54.3034 23.8879 54.7768C23.7357 54.3879 23.3502 53.458 23.0256 52.8493C22.4169 52.0377 21.3517 50.7697 22.6198 49.5523C24.1922 48.8422 24.598 51.4798 25.5617 53.0015Z" fill="white"/>
<path d="M24.9531 54.6246C25.44 53.9348 26.1704 53.5256 26.4747 53.4072C27.7428 53.0015 29.4167 53.3058 30.4311 53.6609C31.2427 53.9449 31.2765 54.8951 31.192 55.3347C31.0229 55.2502 30.2181 55.0912 28.3515 55.1318C26.4849 55.1724 25.2405 57.1438 24.8516 58.1245C24.784 58.3105 24.669 58.7027 24.7502 58.7839C24.8313 58.865 24.9869 58.7501 25.0545 58.6824L25.4096 58.2766C25.5955 57.854 26.211 56.8564 27.1849 56.2477C28.4022 55.4869 30.0253 55.8927 31.192 56.0956C32.1253 56.2579 32.1895 57.3129 32.105 57.8201C32.0373 57.7018 31.5267 57.4549 30.0253 57.4144C28.1486 57.3636 26.5255 60.3563 26.3733 60.5592C26.2211 60.7621 26.2211 60.9142 26.2718 61.0157C26.3226 61.1171 26.4747 61.1171 26.6269 61.0664C26.7791 61.0157 27.6921 59.7476 28.808 58.6824C29.9239 57.6172 31.6485 58.2259 32.3586 58.7839C32.805 59.2302 32.8151 59.8152 32.7644 60.0519C32.8827 60.1027 32.947 60.1737 32.2571 60.0519C31.3949 59.8998 30.1775 61.3707 29.721 61.878C29.2645 62.3852 28.5037 62.6895 28.4022 62.7403C28.3008 62.791 28.3008 63.0953 28.6051 63.0446C28.9094 62.9939 29.1123 62.8924 30.6847 61.878C32.1557 60.3563 32.5108 60.8635 33.1194 61.3707C33.7281 62.3345 33.6774 62.9939 32.2064 64.0083C30.6847 65.4286 27.4385 66.6966 26.3733 66.2401C25.5211 65.8749 25.3757 64.9044 25.4096 64.4648C25.3757 64.3465 25.1965 64.0895 24.7502 64.0083C23.9386 63.8054 23.8879 63.0953 23.8879 62.5881C23.5328 62.4866 23.4314 62.3852 23.0763 61.878C22.7923 61.4722 22.958 60.7621 23.0763 60.4577C22.9241 60.4408 22.5894 60.3259 22.4676 60.0012C22.1126 59.2404 23.1778 57.7694 23.4314 57.1607C23.685 56.5521 24.3444 55.4869 24.9531 54.6246Z" fill="white"/>
<path fill-rule="evenodd" clip-rule="evenodd" d="M16.8012 32.8976C16.8012 32.8976 22.6682 30.7503 23.0401 30.7672C23.4121 30.7841 24.1053 30.9194 24.2575 31.528C24.4073 32.1271 26.0313 38.394 26.9046 41.6219C26.9185 41.6734 26.9311 41.7241 26.8951 41.7741C26.8701 41.8086 26.8444 41.8143 26.8444 41.8143L24.2575 42.8392L27.6559 52.6795L26.4386 53.136L23.1416 43.1943C22.7866 43.338 22.4981 43.4309 22.2194 43.5206L22.2193 43.5206C21.9588 43.6045 21.7069 43.6857 21.417 43.803C21.2903 43.8543 21.2141 43.8537 20.9605 43.803C20.7069 43.7522 20.504 43.3972 20.504 43.3972C20.0475 42.902 16.3447 33.5569 16.3447 33.5569C16.3447 33.5569 16.3553 33.2869 16.4462 33.1512C16.541 33.0096 16.8012 32.8976 16.8012 32.8976ZM22.7871 32.2888C22.8886 32.255 23.1118 32.2178 23.1929 32.3395C23.2741 32.4612 24.6808 37.8007 25.374 40.4552C25.4667 40.8102 25.1204 41.3682 24.6639 40.861C24.3393 40.0088 23.0746 35.1293 22.4828 32.796C22.4659 32.6608 22.5031 32.3699 22.7871 32.2888ZM20.8353 33.1178C20.7443 33.0032 20.525 33.0588 20.4267 33.101C20.1504 33.2055 20.1376 33.4984 20.1657 33.6318C20.9495 35.9077 22.6159 40.6651 23.0103 41.4872C23.5075 41.9547 23.8062 41.3699 23.6842 41.0238C22.7725 38.4362 20.9263 33.2323 20.8353 33.1178ZM18.2774 33.9575C18.373 33.9097 18.5887 33.8413 18.6863 33.9504C18.7838 34.0594 20.9311 39.1464 21.9926 41.6763C22.1345 42.0147 21.8705 42.616 21.3469 42.1784C20.9051 41.3806 18.9634 36.7289 18.0478 34.5027C18.0119 34.3712 18.0077 34.078 18.2774 33.9575Z" fill="#46200A"/>
<path d="M22.7581 49.7229C25.3956 51.7519 24.2797 54.0851 24.3305 54.2373L25.8014 53.0707L24.4826 50.2809C23.8232 49.5539 22.5552 48.4244 22.7581 49.7229Z" fill="#D0DDD7"/>
<path d="M30.0621 54.7445C30.3462 54.0547 29.6733 53.4426 29.3013 53.2228V53.0707L30.6708 53.6286L31.1273 54.2373L31.4317 55.9111C31.0597 55.8604 29.9506 55.7387 28.4897 55.6575C26.6637 55.5561 25.6493 57.3314 25.9536 56.672C26.2579 56.0126 26.3594 55.9619 27.0188 55.3025C27.6782 54.6431 29.3013 54.7445 30.0621 54.7445Z" fill="#D0DDD7"/>
<path d="M31.1273 57.0778C31.3708 56.9966 31.0259 56.3676 30.823 56.0633L31.9896 56.4691L32.3447 57.3314L32.2432 58.3966C32.1282 58.3719 31.9715 58.3389 31.7867 58.3007C31.211 58.1816 30.3629 58.0122 29.6564 57.8893C28.7231 57.727 27.6444 59.039 27.2217 59.7154C27.154 59.6477 27.0898 59.3907 27.3738 58.9038C27.7289 58.2951 28.4897 57.6357 29.0477 57.3314C29.6056 57.027 30.823 57.1792 31.1273 57.0778Z" fill="#D0DDD7"/>
<path d="M32.3447 61.2878C32.1012 60.7197 32.2432 60.6791 32.3447 60.7298L32.8012 60.882L33.7649 61.8457L33.6127 63.1645L32.3447 64.4833C31.6853 64.7538 30.4578 65.2239 30.823 64.9398C31.2795 64.5847 32.2432 63.6717 32.5983 62.8602C32.9534 62.0486 32.649 61.9979 32.3447 61.2878Z" fill="#D0DDD7"/>
<path fill-rule="evenodd" clip-rule="evenodd" d="M32.3625 65.0183C32.6161 65.6946 32.9711 67.1486 32.3625 67.5544C31.6016 68.0616 30.4857 67.5544 30.3336 66.2863C27.4424 67.5544 26.7322 67.6559 25.6671 66.895C24.8555 66.2052 24.7202 65.3564 24.754 65.0183C24.2299 64.8661 23.1918 64.3183 23.2324 63.3444C22.0962 62.5734 22.0488 61.5691 22.1672 61.1633C21.8797 60.7575 21.4368 59.6924 21.9643 58.6779C22.2889 57.5417 22.9787 56.4123 23.2831 55.9896C23.0126 55.0935 22.0657 53.1491 21.6092 52.5912C21.0005 51.3738 21.3556 49.3449 22.5222 48.9898C23.6889 48.6348 24.6526 49.8521 24.9569 50.4101C25.2004 50.8564 25.9376 52.2868 26.2757 52.9462V52.9969C26.7153 52.811 27.9394 52.51 29.3191 52.794C31.0437 53.1491 31.7538 53.4534 31.7538 55.6853C32.8088 56.4562 32.9035 57.7987 32.819 58.3736C33.0388 58.5088 33.4581 59.175 33.3769 60.7575C35.1522 62.2792 33.3769 64.2574 33.3769 64.2067C33.3769 64.1661 32.7006 64.7308 32.3625 65.0183ZM23.852 54.9619C24.1395 54.4884 24.8766 53.4706 25.5259 53.1866C25.2517 52.7537 25.0227 52.2305 24.7992 51.7198C24.2369 50.4351 23.7091 49.2293 22.584 49.7374C21.3745 50.8985 22.2876 52.1057 22.9027 52.9189C22.9325 52.9584 22.9616 52.9969 22.9897 53.0344C23.3144 53.6431 23.6999 54.573 23.852 54.9619ZM26.4389 53.5923C26.1346 53.7107 25.4041 54.1199 24.9172 54.8097C24.3085 55.672 23.6491 56.7372 23.3955 57.3458C23.3331 57.4956 23.2216 57.6974 23.0943 57.9281L23.0943 57.9281C22.7038 58.6352 22.1641 59.6126 22.4318 60.1863C22.5535 60.5109 22.8883 60.6259 23.0405 60.6428C22.9221 60.9472 22.7564 61.6573 23.0405 62.0631C23.3955 62.5703 23.497 62.6717 23.852 62.7732C23.852 63.2804 23.9028 63.9905 24.7143 64.1934C25.1607 64.2746 25.3399 64.5316 25.3737 64.6499C25.3399 65.0895 25.4853 66.06 26.3374 66.4252C27.4026 66.8817 30.6489 65.6137 32.1706 64.1934C33.6415 63.179 33.6923 62.5196 33.0836 61.5558C33.0423 61.5214 33.0021 61.487 32.9627 61.4532C32.4216 60.9891 32.02 60.6447 30.6489 62.0631C29.0765 63.0775 28.8736 63.179 28.5693 63.2297C28.2649 63.2804 28.2649 62.9761 28.3664 62.9254C28.3779 62.9196 28.398 62.9105 28.4253 62.8982C28.6372 62.8027 29.2806 62.5125 29.6852 62.0631C29.7212 62.0231 29.7619 61.9771 29.8068 61.9264C30.3314 61.334 31.427 60.0969 32.2213 60.237C32.9111 60.3588 32.8469 60.2878 32.7285 60.237C32.7793 60.0003 32.7691 59.4153 32.3227 58.969C31.6126 58.411 29.8881 57.8023 28.7721 58.8675C28.1185 59.4915 27.5344 60.1851 27.1321 60.6628L27.1321 60.6628C26.8476 61.0006 26.6541 61.2305 26.5911 61.2515C26.4389 61.3022 26.2867 61.3022 26.236 61.2008C26.1853 61.0993 26.1853 60.9472 26.3374 60.7443C26.3536 60.7228 26.3862 60.67 26.4339 60.5928C26.8364 59.9414 28.3116 57.5541 29.9895 57.5994C31.4909 57.64 32.0015 57.8869 32.0691 58.0052C32.1537 57.498 32.0894 56.443 31.1561 56.2807C31.0415 56.2607 30.9226 56.2388 30.8 56.2163C29.6746 56.0093 28.2468 55.7467 27.149 56.4328C26.1751 57.0415 25.5597 58.039 25.3737 58.4617L25.0187 58.8675C24.951 58.9352 24.7955 59.0501 24.7143 58.969C24.6332 58.8878 24.7481 58.4956 24.8158 58.3096C25.2046 57.3289 26.449 55.3575 28.3156 55.3169C30.1822 55.2763 30.987 55.4353 31.1561 55.5198C31.2407 55.0802 31.2068 54.13 30.3953 53.846C29.3808 53.4909 27.707 53.1866 26.4389 53.5923Z" fill="#46200A"/>
</g>
<defs>
<filter id="filter0_d_107_570" x="3.09082" y="12.0908" width="88.8184" height="88.8181" filterUnits="userSpaceOnUse" color-interpolation-filters="sRGB">
<feFlood flood-opacity="0" result="BackgroundImageFix"/>
<feColorMatrix in="SourceAlpha" type="matrix" values="0 0 0 0 0 0 0 0 0 0 0 0 0 0 0 0 0 0 127 0" result="hardAlpha"/>
<feOffset dy="9"/>
<feGaussianBlur stdDeviation="4.5"/>
<feComposite in2="hardAlpha" operator="out"/>
<feColorMatrix type="matrix" values="0 0 0 0 0 0 0 0 0 0 0 0 0 0 0 0 0 0 0.75 0"/>
<feBlend mode="normal" in2="BackgroundImageFix" result="effect1_dropShadow_107_570"/>
<feBlend mode="normal" in="SourceGraphic" in2="effect1_dropShadow_107_570" result="shape"/>
</filter>
<filter id="filter1_ddd_107_570" x="4.20166" y="8.20215" width="86.5957" height="86.5957" filterUnits="userSpaceOnUse" color-interpolation-filters="sRGB">
<feFlood flood-opacity="0" result="BackgroundImageFix"/>
<feColorMatrix in="SourceAlpha" type="matrix" values="0 0 0 0 0 0 0 0 0 0 0 0 0 0 0 0 0 0 127 0" result="hardAlpha"/>
<feOffset dy="4"/>
<feGaussianBlur stdDeviation="2"/>
<feComposite in2="hardAlpha" operator="out"/>
<feColorMatrix type="matrix" values="0 0 0 0 0 0 0 0 0 0 0 0 0 0 0 0 0 0 0.25 0"/>
<feBlend mode="normal" in2="BackgroundImageFix" result="effect1_dropShadow_107_570"/>
<feColorMatrix in="SourceAlpha" type="matrix" values="0 0 0 0 0 0 0 0 0 0 0 0 0 0 0 0 0 0 127 0" result="hardAlpha"/>
<feOffset dy="4"/>
<feGaussianBlur stdDeviation="2"/>
<feComposite in2="hardAlpha" operator="out"/>
<feColorMatrix type="matrix" values="0 0 0 0 0 0 0 0 0 0 0 0 0 0 0 0 0 0 0.25 0"/>
<feBlend mode="normal" in2="effect1_dropShadow_107_570" result="effect2_dropShadow_107_570"/>
<feColorMatrix in="SourceAlpha" type="matrix" values="0 0 0 0 0 0 0 0 0 0 0 0 0 0 0 0 0 0 127 0" result="hardAlpha"/>
<feOffset dy="4"/>
<feGaussianBlur stdDeviation="2"/>
<feComposite in2="hardAlpha" operator="out"/>
<feColorMatrix type="matrix" values="0 0 0 0 0 0 0 0 0 0 0 0 0 0 0 0 0 0 0.25 0"/>
<feBlend mode="normal" in2="effect2_dropShadow_107_570" result="effect3_dropShadow_107_570"/>
<feBlend mode="normal" in="SourceGraphic" in2="effect3_dropShadow_107_570" result="shape"/>
</filter>
<filter id="filter2_d_107_570" x="25.2607" y="27.1741" width="44.207" height="34.1123" filterUnits="userSpaceOnUse" color-interpolation-filters="sRGB">
<feFlood flood-opacity="0" result="BackgroundImageFix"/>
<feColorMatrix in="SourceAlpha" type="matrix" values="0 0 0 0 0 0 0 0 0 0 0 0 0 0 0 0 0 0 127 0" result="hardAlpha"/>
<feOffset dy="3"/>
<feGaussianBlur stdDeviation="1.5"/>
<feComposite in2="hardAlpha" operator="out"/>
<feColorMatrix type="matrix" values="0 0 0 0 0 0 0 0 0 0 0 0 0 0 0 0 0 0 0.25 0"/>
<feBlend mode="normal" in2="BackgroundImageFix" result="effect1_dropShadow_107_570"/>
<feBlend mode="normal" in="SourceGraphic" in2="effect1_dropShadow_107_570" result="shape"/>
</filter>
<filter id="filter3_d_107_570" x="33.7354" y="55.7632" width="29.6064" height="13.2473" filterUnits="userSpaceOnUse" color-interpolation-filters="sRGB">
<feFlood flood-opacity="0" result="BackgroundImageFix"/>
<feColorMatrix in="SourceAlpha" type="matrix" values="0 0 0 0 0 0 0 0 0 0 0 0 0 0 0 0 0 0 127 0" result="hardAlpha"/>
<feOffset dy="3"/>
<feGaussianBlur stdDeviation="1.5"/>
<feComposite in2="hardAlpha" operator="out"/>
<feColorMatrix type="matrix" values="0 0 0 0 0 0 0 0 0 0 0 0 0 0 0 0 0 0 0.25 0"/>
<feBlend mode="normal" in2="BackgroundImageFix" result="effect1_dropShadow_107_570"/>
<feBlend mode="normal" in="SourceGraphic" in2="effect1_dropShadow_107_570" result="shape"/>
</filter>
<filter id="filter4_dd_107_570" x="36.0913" y="45.2725" width="26.2729" height="10.7275" filterUnits="userSpaceOnUse" color-interpolation-filters="sRGB">
<feFlood flood-opacity="0" result="BackgroundImageFix"/>
<feColorMatrix in="SourceAlpha" type="matrix" values="0 0 0 0 0 0 0 0 0 0 0 0 0 0 0 0 0 0 127 0" result="hardAlpha"/>
<feOffset dy="4"/>
<feGaussianBlur stdDeviation="2"/>
<feComposite in2="hardAlpha" operator="out"/>
<feColorMatrix type="matrix" values="0 0 0 0 0 0 0 0 0 0 0 0 0 0 0 0 0 0 0.25 0"/>
<feBlend mode="normal" in2="BackgroundImageFix" result="effect1_dropShadow_107_570"/>
<feColorMatrix in="SourceAlpha" type="matrix" values="0 0 0 0 0 0 0 0 0 0 0 0 0 0 0 0 0 0 127 0" result="hardAlpha"/>
<feOffset dy="4"/>
<feGaussianBlur stdDeviation="2"/>
<feComposite in2="hardAlpha" operator="out"/>
<feColorMatrix type="matrix" values="0 0 0 0 0 0 0 0 0 0 0 0 0 0 0 0 0 0 0.25 0"/>
<feBlend mode="normal" in2="effect1_dropShadow_107_570" result="effect2_dropShadow_107_570"/>
<feBlend mode="normal" in="SourceGraphic" in2="effect2_dropShadow_107_570" result="shape"/>
</filter>
<filter id="filter5_d_107_570" x="61.2275" y="30.8691" width="20.0742" height="43.9197" filterUnits="userSpaceOnUse" color-interpolation-filters="sRGB">
<feFlood flood-opacity="0" result="BackgroundImageFix"/>
<feColorMatrix in="SourceAlpha" type="matrix" values="0 0 0 0 0 0 0 0 0 0 0 0 0 0 0 0 0 0 127 0" result="hardAlpha"/>
<feOffset dy="3"/>
<feGaussianBlur stdDeviation="1.5"/>
<feComposite in2="hardAlpha" operator="out"/>
<feColorMatrix type="matrix" values="0 0 0 0 0 0 0 0 0 0 0 0 0 0 0 0 0 0 0.25 0"/>
<feBlend mode="normal" in2="BackgroundImageFix" result="effect1_dropShadow_107_570"/>
<feBlend mode="normal" in="SourceGraphic" in2="effect1_dropShadow_107_570" result="shape"/>
</filter>
<filter id="filter6_d_107_570" x="13.3447" y="30.7671" width="23.8213" height="42.9817" filterUnits="userSpaceOnUse" color-interpolation-filters="sRGB">
<feFlood flood-opacity="0" result="BackgroundImageFix"/>
<feColorMatrix in="SourceAlpha" type="matrix" values="0 0 0 0 0 0 0 0 0 0 0 0 0 0 0 0 0 0 127 0" result="hardAlpha"/>
<feOffset dy="3"/>
<feGaussianBlur stdDeviation="1.5"/>
<feComposite in2="hardAlpha" operator="out"/>
<feColorMatrix type="matrix" values="0 0 0 0 0 0 0 0 0 0 0 0 0 0 0 0 0 0 0.25 0"/>
<feBlend mode="normal" in2="BackgroundImageFix" result="effect1_dropShadow_107_570"/>
<feBlend mode="normal" in="SourceGraphic" in2="effect1_dropShadow_107_570" result="shape"/>
</filter>
<linearGradient id="paint0_linear_107_570" x1="47.4999" y1="12.0908" x2="47.4999" y2="82.909" gradientUnits="userSpaceOnUse">
<stop stop-color="#FFFAFF"/>
<stop offset="1" stop-color="#D0DDD7"/>
</linearGradient>
<radialGradient id="paint1_radial_107_570" cx="0" cy="0" r="1" gradientUnits="userSpaceOnUse" gradientTransform="translate(47.4996 47.5001) rotate(90) scale(39.2979)">
<stop offset="0.9999" stop-color="#8F8389"/>
<stop offset="1" stop-color="#6A6A6A" stop-opacity="0"/>
</radialGradient>
</defs>
</svg>
