<svg width="39" height="52" viewBox="0 0 39 52" fill="none" xmlns="http://www.w3.org/2000/svg">
<path d="M8.79834 20.2661L9.8971 21.0901C10.3132 21.4022 10.899 21.3432 11.2445 20.9545L14.3029 17.5138" stroke="#BDAE77" stroke-linecap="round"/>
<path d="M27.9819 10.1743H10.7158C10.1635 10.1743 9.71582 9.7266 9.71582 9.17431V7.27716V5.38001C9.71582 4.82772 10.1635 4.38001 10.7158 4.38001H14.8246C15.3769 4.38001 15.8183 3.92549 15.964 3.39278C16.2685 2.2799 17.1307 1 19.1139 1C21.1849 1 22.2275 2.39572 22.654 3.53946C22.8284 4.00709 23.2446 4.38001 23.7437 4.38001H27.9819C28.5342 4.38001 28.9819 4.82773 28.9819 5.38001V9.17431C28.9819 9.7266 28.5342 10.1743 27.9819 10.1743Z" stroke="#BDAE77" stroke-linecap="round"/>
<path d="M9.7156 6.96332H4C2.34315 6.96332 1 8.30646 1 9.96332V48C1 49.6569 2.34315 51 4 51H29.8991" stroke="#BDAE77" stroke-linecap="round"/>
<path d="M29.8989 51L29.4343 47.5158C29.1945 45.7173 30.5936 44.1193 32.408 44.1193H37.2383" stroke="#BDAE77" stroke-linecap="round"/>
<path d="M29.8989 51L36.6819 45.015C37.3273 44.4455 37.697 43.6262 37.697 42.7655V9.96331C37.697 8.30646 36.3539 6.96332 34.697 6.96332H28.9814" stroke="#BDAE77" stroke-linecap="round"/>
<path d="M21.6421 18.4312H29.4403M21.6421 22.5596H34.0274M21.6421 33.5688H29.4403M21.6421 37.6972H34.0274" stroke="#BDAE77" stroke-linecap="round"/>
<mask id="path-7-inside-1_123_335" fill="white">
<path fill-rule="evenodd" clip-rule="evenodd" d="M13.8058 20.6831C13.5489 20.6831 13.3364 20.8769 13.2743 21.1263C12.8855 22.6876 11.4623 23.8532 9.75393 23.8532C7.74375 23.8532 6.12842 22.2393 6.12842 20.266C6.12842 18.2928 7.74375 16.6789 9.75393 16.6789C10.4323 16.6789 11.0656 16.8627 11.6071 17.182C11.8436 17.3215 12.1545 17.29 12.3269 17.0763V17.0763C12.5014 16.8601 12.4675 16.5405 12.2324 16.3923C11.516 15.9406 10.6658 15.6789 9.75393 15.6789C7.19933 15.6789 5.12842 17.7326 5.12842 20.266C5.12842 22.7995 7.19933 24.8532 9.75393 24.8532C11.9746 24.8532 13.8298 23.3013 14.2768 21.2314C14.3397 20.9402 14.1037 20.6831 13.8058 20.6831V20.6831Z"/>
</mask>
<path d="M14.2768 21.2314L15.2543 21.4425L14.2768 21.2314ZM11.6071 17.182L12.1151 16.3206L11.6071 17.182ZM12.3269 17.0763L11.5486 16.4485L12.3269 17.0763ZM13.2743 21.1263L12.304 20.8846L13.2743 21.1263ZM9.75393 24.8532C11.9277 24.8532 13.7464 23.3688 14.2447 21.368L12.304 20.8846C12.0246 22.0063 10.9969 22.8532 9.75393 22.8532V24.8532ZM5.12842 20.266C5.12842 22.7988 7.19867 24.8532 9.75393 24.8532V22.8532C8.28883 22.8532 7.12842 21.6799 7.12842 20.266H5.12842ZM9.75393 15.6789C7.19867 15.6789 5.12842 17.7333 5.12842 20.266H7.12842C7.12842 18.8522 8.28883 17.6789 9.75393 17.6789V15.6789ZM12.1151 16.3206C11.4234 15.9127 10.6152 15.6789 9.75393 15.6789V17.6789C10.2493 17.6789 10.7078 17.8126 11.0992 18.0434L12.1151 16.3206ZM12.7658 15.5464C11.894 14.9967 10.8596 14.6789 9.75393 14.6789V16.6789C10.472 16.6789 11.138 16.8844 11.699 17.2382L12.7658 15.5464ZM9.75393 14.6789C6.65491 14.6789 4.12842 17.1725 4.12842 20.266H6.12842C6.12842 18.2928 7.74375 16.6789 9.75393 16.6789V14.6789ZM4.12842 20.266C4.12842 23.3596 6.65491 25.8532 9.75393 25.8532V23.8532C7.74375 23.8532 6.12842 22.2393 6.12842 20.266H4.12842ZM9.75393 25.8532C12.4498 25.8532 14.7088 23.9685 15.2543 21.4425L13.2994 21.0203C12.9509 22.634 11.4995 23.8532 9.75393 23.8532V25.8532ZM13.1052 17.7042C13.6073 17.0817 13.5694 16.0531 12.7658 15.5464L11.699 17.2382C11.3656 17.0279 11.3954 16.6384 11.5486 16.4485L13.1052 17.7042ZM15.2543 21.4425C15.47 20.4439 14.6517 19.6831 13.8058 19.6831V21.6831C13.6649 21.6831 13.5252 21.6218 13.4251 21.5077C13.3196 21.3876 13.2592 21.2061 13.2994 21.0203L15.2543 21.4425ZM11.0992 18.0434C11.6893 18.3914 12.5705 18.367 13.1052 17.7042L11.5486 16.4485C11.6384 16.3371 11.7587 16.2837 11.8592 16.2703C11.9544 16.2577 12.0426 16.2778 12.1151 16.3206L11.0992 18.0434ZM14.2447 21.368C14.2147 21.4885 14.0817 21.6831 13.8058 21.6831V19.6831C13.016 19.6831 12.4582 20.2654 12.304 20.8846L14.2447 21.368Z" fill="#BDAE77" mask="url(#path-7-inside-1_123_335)"/>
<path d="M8.79834 34.945L9.8971 35.769C10.3132 36.0811 10.899 36.0221 11.2445 35.6334L14.3029 32.1927" stroke="#BDAE77" stroke-linecap="round"/>
<mask id="path-10-inside-2_123_335" fill="white">
<path fill-rule="evenodd" clip-rule="evenodd" d="M13.8058 35.362C13.5489 35.362 13.3364 35.5558 13.2743 35.8052C12.8855 37.3665 11.4623 38.5321 9.75393 38.5321C7.74375 38.5321 6.12842 36.9182 6.12842 34.9449C6.12842 32.9716 7.74375 31.3578 9.75393 31.3578C10.4323 31.3578 11.0656 31.5416 11.6072 31.8609C11.8436 32.0004 12.1545 31.9689 12.3269 31.7552V31.7552C12.5014 31.539 12.4675 31.2194 12.2324 31.0712C11.516 30.6195 10.6658 30.3578 9.75393 30.3578C7.19933 30.3578 5.12842 32.4115 5.12842 34.9449C5.12842 37.4784 7.19933 39.5321 9.75393 39.5321C11.9746 39.5321 13.8298 37.9802 14.2768 35.9103C14.3397 35.6191 14.1037 35.362 13.8058 35.362V35.362Z"/>
</mask>
<path d="M12.2324 31.0712L11.6991 31.9171L12.2324 31.0712ZM14.2768 35.9103L15.2543 36.1214L14.2768 35.9103ZM12.3269 31.7552L11.5486 31.1274L12.3269 31.7552ZM13.2743 35.8052L12.304 35.5635L13.2743 35.8052ZM9.75393 39.5321C11.9277 39.5321 13.7464 38.0477 14.2447 36.0469L12.304 35.5635C12.0246 36.6852 10.9969 37.5321 9.75393 37.5321V39.5321ZM5.12842 34.9449C5.12842 37.4777 7.19867 39.5321 9.75393 39.5321V37.5321C8.28883 37.5321 7.12842 36.3588 7.12842 34.9449H5.12842ZM9.75393 30.3578C7.19867 30.3578 5.12842 32.4122 5.12842 34.9449H7.12842C7.12842 33.5311 8.28883 32.3578 9.75393 32.3578V30.3578ZM12.1151 30.9995C11.4234 30.5916 10.6152 30.3578 9.75393 30.3578V32.3578C10.2493 32.3578 10.7079 32.4915 11.0992 32.7223L12.1151 30.9995ZM12.7658 30.2253C11.894 29.6756 10.8596 29.3578 9.75393 29.3578V31.3578C10.472 31.3578 11.138 31.5633 11.6991 31.9171L12.7658 30.2253ZM9.75393 29.3578C6.65491 29.3578 4.12842 31.8514 4.12842 34.9449H6.12842C6.12842 32.9716 7.74375 31.3578 9.75393 31.3578V29.3578ZM4.12842 34.9449C4.12842 38.0385 6.65491 40.5321 9.75393 40.5321V38.5321C7.74375 38.5321 6.12842 36.9182 6.12842 34.9449H4.12842ZM9.75393 40.5321C12.4498 40.5321 14.7087 38.6474 15.2543 36.1214L13.2994 35.6992C12.9509 37.3129 11.4995 38.5321 9.75393 38.5321V40.5321ZM13.1052 32.3831C13.6073 31.7606 13.5694 30.732 12.7658 30.2253L11.6991 31.9171C11.3656 31.7068 11.3954 31.3173 11.5486 31.1274L13.1052 32.3831ZM15.2543 36.1214C15.47 35.1228 14.6517 34.362 13.8058 34.362V36.362C13.6649 36.362 13.5252 36.3007 13.4251 36.1866C13.3196 36.0665 13.2592 35.885 13.2994 35.6992L15.2543 36.1214ZM11.0992 32.7223C11.6893 33.0703 12.5705 33.0459 13.1052 32.3831L11.5486 31.1274C11.6384 31.016 11.7587 30.9626 11.8592 30.9492C11.9544 30.9366 12.0426 30.9567 12.1151 30.9995L11.0992 32.7223ZM14.2447 36.0469C14.2147 36.1674 14.0817 36.362 13.8058 36.362V34.362C13.016 34.362 12.4582 34.9443 12.304 35.5635L14.2447 36.0469Z" fill="#BDAE77" mask="url(#path-10-inside-2_123_335)"/>
</svg>
