<svg width="1174" height="70" viewBox="0 0 1174 70" fill="none" xmlns="http://www.w3.org/2000/svg">
<path d="M605.967 31.3746C602.097 30.0213 598.56 27.7561 595.615 24.7457C592.8 21.5941 590.68 17.8063 589.413 13.6612C588.075 9.20066 586.989 4.6578 586.161 0.057312C585.327 4.65601 584.238 9.19747 582.9 13.6576C581.636 17.8013 579.522 21.5894 576.713 24.7439C573.771 27.7575 570.234 30.0252 566.364 31.38C562.2 32.8124 557.959 33.9761 553.665 34.8647C557.958 35.7577 562.198 36.9242 566.361 38.3581C570.231 39.7103 573.769 41.9751 576.713 44.9856C579.527 48.1379 581.644 51.9263 582.909 56.0715C584.248 60.5307 585.335 65.0724 586.163 69.6718C586.998 65.0733 588.087 60.5319 589.424 56.0715C590.687 51.9255 592.803 48.1363 595.617 44.9838C598.56 41.9692 602.098 39.7013 605.969 38.3478C610.133 36.9142 614.374 35.7511 618.668 34.8647C614.374 33.9706 610.133 32.8052 605.967 31.3746ZM592.324 41.466C589.212 44.9544 587.076 49.3078 586.158 54.0315C585.241 49.3092 583.107 44.9566 579.998 41.4677C576.742 38.1323 572.676 35.8438 568.265 34.863C572.675 33.8803 576.739 31.594 579.998 28.2632C583.114 24.7769 585.251 20.422 586.164 15.6962C587.082 20.4202 589.216 24.7747 592.324 28.2667C595.583 31.5977 599.648 33.885 604.058 34.8697C599.648 35.8528 595.584 38.1377 592.324 41.466Z" fill="#BDAE77" fill-opacity="0.27"/>
<path d="M0.397461 34.8665L115.562 36.1879C115.397 35.7697 115.312 35.3204 115.312 34.8665C115.312 34.4126 115.397 33.9633 115.562 33.5452L0.397461 34.8665Z" fill="#BDAE77" fill-opacity="0.27"/>
<path d="M376.165 31.9373L361.325 31.9775C361.782 32.2845 362.158 32.7106 362.419 33.2159C362.68 33.7213 362.817 34.2892 362.817 34.8667C362.817 35.4441 362.68 36.0121 362.419 36.5174C362.158 37.0228 361.782 37.4489 361.325 37.7559L376.165 37.7957C375.694 37.4918 375.303 37.0623 375.032 36.549C374.761 36.0358 374.619 35.4561 374.619 34.8665C374.619 34.2769 374.761 33.6973 375.032 33.184C375.303 32.6707 375.694 32.2413 376.165 31.9373Z" fill="#BDAE77" fill-opacity="0.27"/>
<path d="M269.018 32.3609C269.637 33.0264 269.984 33.9273 269.984 34.8664C269.984 35.8056 269.637 36.7065 269.018 37.3719L279.001 37.4359C278.67 37.1085 278.405 36.7111 278.225 36.2688C278.044 35.8266 277.95 35.349 277.95 34.8663C277.95 34.3835 278.044 33.9059 278.225 33.4637C278.405 33.0214 278.67 32.624 279.001 32.2966L269.018 32.3609Z" fill="#BDAE77" fill-opacity="0.27"/>
<path d="M230.271 32.6147C230.791 33.2327 231.079 34.0349 231.079 34.8667C231.079 35.6984 230.791 36.5007 230.271 37.1186L238.277 37.1706C237.736 36.5427 237.437 35.7202 237.437 34.8665C237.437 34.0128 237.736 33.1903 238.277 32.5624L230.271 32.6147Z" fill="#BDAE77" fill-opacity="0.27"/>
<path d="M324.828 32.0762L312.392 32.1093C312.796 32.4265 313.126 32.8415 313.353 33.3206C313.58 33.7996 313.698 34.3293 313.698 34.8666C313.698 35.4038 313.58 35.9335 313.353 36.4126C313.126 36.8916 312.796 37.3066 312.392 37.6238L324.828 37.6565C324.41 37.3423 324.068 36.9247 323.832 36.439C323.596 35.9533 323.473 35.4139 323.473 34.8664C323.473 34.3189 323.596 33.7795 323.832 33.2938C324.068 32.8081 324.41 32.3905 324.828 32.0762Z" fill="#BDAE77" fill-opacity="0.27"/>
<path d="M195.788 32.8399C196.219 33.4149 196.453 34.1298 196.453 34.8668C196.453 35.6038 196.219 36.3187 195.788 36.8937L202.071 36.9353C201.625 36.3522 201.381 35.6214 201.381 34.8673C201.381 34.1132 201.625 33.3824 202.071 32.7994L195.788 32.8399Z" fill="#BDAE77" fill-opacity="0.27"/>
<path d="M137.822 33.2897C138.073 33.7717 138.204 34.3144 138.204 34.8662C138.204 35.418 138.073 35.9607 137.822 36.4427L141.135 36.4811C140.87 35.9905 140.73 35.4335 140.73 34.8664C140.73 34.2993 140.87 33.7423 141.135 33.2516L137.822 33.2897Z" fill="#BDAE77" fill-opacity="0.27"/>
<path d="M498.656 31.6074L478.088 31.6628C478.662 31.9429 479.148 32.3938 479.489 32.9618C479.83 33.5298 480.012 34.1909 480.012 34.8662C480.012 35.5415 479.83 36.2026 479.489 36.7706C479.148 37.3385 478.662 37.7895 478.088 38.0695L498.656 38.1254C498.062 37.8506 497.556 37.3956 497.2 36.8165C496.845 36.2373 496.656 35.5594 496.656 34.8664C496.656 34.1733 496.845 33.4954 497.2 32.9163C497.556 32.3371 498.062 31.8821 498.656 31.6074Z" fill="#BDAE77" fill-opacity="0.27"/>
<path d="M165.095 33.04C165.445 33.5752 165.633 34.2129 165.633 34.8665C165.633 35.52 165.445 36.1578 165.095 36.693L169.848 36.7242C169.485 36.1826 169.29 35.5329 169.29 34.8665C169.29 34.2 169.485 33.5503 169.848 33.0087L165.095 33.04Z" fill="#BDAE77" fill-opacity="0.27"/>
<path d="M433.845 31.7827L416.309 31.8297C416.821 32.1245 417.249 32.5625 417.548 33.0973C417.846 33.632 418.004 34.2434 418.004 34.8664C418.004 35.4894 417.846 36.1008 417.548 36.6356C417.249 37.1703 416.821 37.6083 416.309 37.9032L433.845 37.9501C433.315 37.6595 432.87 37.2178 432.56 36.6737C432.249 36.1296 432.085 35.5042 432.085 34.8664C432.085 34.2286 432.249 33.6032 432.56 33.0591C432.87 32.515 433.315 32.0733 433.845 31.7827Z" fill="#BDAE77" fill-opacity="0.27"/>
<path d="M391.091 25.3655C391.462 24.6193 391.765 23.8367 391.996 23.0285L347.043 23.1622C347.208 23.8724 347.428 24.5665 347.701 25.2371L391.091 25.3655Z" fill="#BDAE77" fill-opacity="0.27"/>
<path d="M449.807 25.5305C450.354 24.6999 450.811 23.8051 451.168 22.8635L400.617 23.0058C400.852 23.8332 401.163 24.6339 401.544 25.3968L449.807 25.5305Z" fill="#BDAE77" fill-opacity="0.27"/>
<path d="M549.019 25.8083L563.764 22.518L528.629 22.6464C529.134 23.7687 529.775 24.8145 530.536 25.7564L549.019 25.8083Z" fill="#BDAE77" fill-opacity="0.27"/>
<path d="M250.075 24.7354C250.139 24.3763 250.224 24.0516 250.262 23.6573L219.611 23.9108C219.621 24.0982 219.621 24.3048 219.637 24.4855L250.075 24.7354Z" fill="#BDAE77" fill-opacity="0.27"/>
<path d="M212.845 23.9677L186.205 24.1872V24.2114L212.826 24.4305C212.836 24.2862 212.836 24.1173 212.845 23.9677Z" fill="#BDAE77" fill-opacity="0.27"/>
<path d="M338.598 25.2107C338.864 24.5552 339.078 23.8773 339.24 23.1838L299.452 23.3019C299.534 23.9073 299.652 24.5064 299.806 25.0955L338.598 25.2107Z" fill="#BDAE77" fill-opacity="0.27"/>
<path d="M515.842 25.7163C516.583 24.7933 517.209 23.7714 517.704 22.676L460.924 22.836C461.288 23.8015 461.757 24.7176 462.321 25.5651L515.842 25.7163Z" fill="#BDAE77" fill-opacity="0.27"/>
<path d="M290.478 25.0684L291.853 25.0719C291.999 24.4972 292.112 23.9132 292.19 23.3235L290.478 23.3285L257.152 23.603C257.198 24.0386 257.288 24.4016 257.36 24.7956L290.478 25.0684Z" fill="#BDAE77" fill-opacity="0.27"/>
<path d="M401.544 44.3379C401.163 45.1007 400.852 45.9015 400.617 46.7289L451.168 46.8712C450.811 45.9295 450.354 45.0347 449.807 44.2042L401.544 44.3379Z" fill="#BDAE77" fill-opacity="0.27"/>
<path d="M347.701 44.4962C347.428 45.1668 347.208 45.8609 347.043 46.5711L391.996 46.7048C391.765 45.8964 391.462 45.1137 391.091 44.3675L347.701 44.4962Z" fill="#BDAE77" fill-opacity="0.27"/>
<path d="M462.321 44.1677C461.757 45.0154 461.288 45.9316 460.924 46.8973L517.704 47.0569C517.209 45.9615 516.583 44.9396 515.842 44.0166L462.321 44.1677Z" fill="#BDAE77" fill-opacity="0.27"/>
<path d="M186.205 45.5227V45.5469L212.845 45.766C212.836 45.6164 212.836 45.4478 212.826 45.3028L186.205 45.5227Z" fill="#BDAE77" fill-opacity="0.27"/>
<path d="M219.637 45.246C219.621 45.4266 219.621 45.6332 219.611 45.8206L250.262 46.0741C250.224 45.6801 250.139 45.3555 250.075 44.996L219.637 45.246Z" fill="#BDAE77" fill-opacity="0.27"/>
<path d="M290.478 44.664L257.36 44.9367C257.288 45.3307 257.198 45.6938 257.152 46.1294L290.478 46.4039L292.19 46.4092C292.112 45.8195 291.999 45.2355 291.853 44.6608L290.478 44.664Z" fill="#BDAE77" fill-opacity="0.27"/>
<path d="M299.806 44.6363C299.652 45.2255 299.534 45.8246 299.452 46.4299L339.24 46.548C339.078 45.8546 338.864 45.1766 338.598 44.5211L299.806 44.6363Z" fill="#BDAE77" fill-opacity="0.27"/>
<path d="M530.536 43.9769C529.775 44.9186 529.134 45.9643 528.629 47.0865L563.764 46.7046L549.019 43.9246L530.536 43.9769Z" fill="#BDAE77" fill-opacity="0.27"/>
<path d="M126.756 26.1624C126.756 32.1925 124.26 34.8666 118.632 34.8666C124.26 34.8666 126.756 37.5403 126.756 43.5704C126.756 37.5403 129.256 34.8666 134.885 34.8666C129.256 34.8666 126.756 32.1925 126.756 26.1624Z" fill="#BDAE77" fill-opacity="0.27"/>
<path d="M153.18 25.086C153.18 31.8625 150.375 34.8648 144.05 34.8648C150.375 34.8648 153.18 37.8684 153.18 44.6453C153.18 37.8684 155.987 34.8648 162.313 34.8648C155.986 34.8665 153.18 31.8625 153.18 25.086Z" fill="#BDAE77" fill-opacity="0.27"/>
<path d="M182.871 23.8757C182.871 31.491 179.717 34.8666 172.61 34.8666C179.717 34.8666 182.871 38.2419 182.871 45.8573C182.871 38.2419 186.022 34.8666 193.132 34.8666C186.022 34.8666 182.871 31.4917 182.871 23.8757Z" fill="#BDAE77" fill-opacity="0.27"/>
<path d="M216.23 22.518C216.23 31.0746 212.686 34.8666 204.701 34.8666C212.686 34.8666 216.23 38.6587 216.23 47.2149C216.23 38.6587 219.77 34.8666 227.759 34.8666C219.77 34.8666 216.23 31.0746 216.23 22.518Z" fill="#BDAE77" fill-opacity="0.27"/>
<path d="M253.712 20.9917C253.712 30.6055 249.731 34.8665 240.756 34.8665C249.731 34.8665 253.712 39.1272 253.712 48.741C253.712 39.1272 257.69 34.8665 266.664 34.8665C257.69 34.8665 253.712 30.6055 253.712 20.9917Z" fill="#BDAE77" fill-opacity="0.27"/>
<path d="M295.824 19.2781C295.824 30.0796 291.354 34.8666 281.271 34.8666C291.354 34.8666 295.824 39.6535 295.824 50.455C295.824 39.6535 300.295 34.8666 310.378 34.8666C300.295 34.8666 295.824 30.0796 295.824 19.2781Z" fill="#BDAE77" fill-opacity="0.27"/>
<path d="M359.497 34.8664C348.169 34.8664 343.144 29.4873 343.144 17.3506C343.144 29.4873 338.118 34.8664 326.793 34.8664C338.118 34.8664 343.144 40.2454 343.144 52.3817C343.144 40.2454 348.169 34.8664 359.497 34.8664Z" fill="#BDAE77" fill-opacity="0.27"/>
<path d="M414.684 34.8665C401.956 34.8665 396.311 28.8214 396.311 15.1855C396.311 28.8207 390.667 34.8665 377.938 34.8665C390.666 34.8665 396.311 40.9115 396.311 54.547C396.311 40.9122 401.956 34.8665 414.684 34.8665Z" fill="#BDAE77" fill-opacity="0.27"/>
<path d="M476.693 34.8666C462.392 34.8666 456.051 28.0748 456.051 12.7531C456.051 28.0741 449.706 34.8666 435.405 34.8666C449.706 34.8666 456.051 41.6584 456.051 56.9798C456.051 41.6588 462.392 34.8666 476.693 34.8666Z" fill="#BDAE77" fill-opacity="0.27"/>
<path d="M545.575 34.0869C529.945 34.0869 523.014 26.6647 523.014 9.9209C523.014 26.664 516.08 34.0869 500.45 34.0869C516.08 34.0869 523.014 41.5091 523.014 58.2526C523.014 41.5095 529.945 34.0869 545.575 34.0869Z" fill="#BDAE77" fill-opacity="0.27"/>
<path d="M673.581 34.0869C657.951 34.0869 651.021 26.6647 651.021 9.9209C651.021 26.664 644.086 34.0869 628.457 34.0869C644.086 34.0869 651.021 41.5091 651.021 58.2526C651.021 41.5095 657.951 34.0869 673.581 34.0869Z" fill="#BDAE77" fill-opacity="0.27"/>
<path d="M1174 34.8665L1058.84 33.5452C1059 33.9633 1059.09 34.4126 1059.09 34.8665C1059.09 35.3204 1059 35.7697 1058.84 36.1879L1174 34.8665Z" fill="#BDAE77" fill-opacity="0.27"/>
<path d="M813.073 31.9775L798.233 31.9373C798.705 32.2412 799.095 32.6706 799.366 33.1839C799.637 33.6972 799.78 34.2768 799.78 34.8665C799.78 35.4562 799.637 36.0358 799.366 36.5491C799.095 37.0624 798.705 37.4918 798.233 37.7957L813.073 37.7559C812.616 37.4489 812.24 37.0228 811.979 36.5174C811.718 36.0121 811.581 35.4441 811.581 34.8667C811.581 34.2892 811.718 33.7213 811.979 33.2159C812.24 32.7106 812.616 32.2845 813.073 31.9775Z" fill="#BDAE77" fill-opacity="0.27"/>
<path d="M895.396 32.2966C895.728 32.624 895.992 33.0214 896.173 33.4637C896.354 33.9059 896.447 34.3835 896.447 34.8663C896.447 35.349 896.354 35.8266 896.173 36.2688C895.992 36.7111 895.728 37.1085 895.396 37.4359L905.379 37.3719C904.76 36.7065 904.413 35.8056 904.413 34.8664C904.413 33.9273 904.76 33.0264 905.379 32.3609L895.396 32.2966Z" fill="#BDAE77" fill-opacity="0.27"/>
<path d="M936.121 32.5624C936.661 33.1903 936.961 34.0128 936.961 34.8665C936.961 35.7202 936.661 36.5427 936.121 37.1706L944.126 37.1186C943.606 36.5007 943.319 35.6984 943.319 34.8667C943.319 34.0349 943.606 33.2327 944.126 32.6147L936.121 32.5624Z" fill="#BDAE77" fill-opacity="0.27"/>
<path d="M862.006 32.1093L849.569 32.0762C849.987 32.3905 850.329 32.8081 850.565 33.2938C850.801 33.7795 850.924 34.3189 850.924 34.8664C850.924 35.4139 850.801 35.9533 850.565 36.439C850.329 36.9247 849.987 37.3423 849.569 37.6565L862.006 37.6238C861.601 37.3066 861.272 36.8916 861.045 36.4126C860.818 35.9335 860.699 35.4038 860.699 34.8666C860.699 34.3293 860.818 33.7996 861.045 33.3206C861.272 32.8415 861.601 32.4265 862.006 32.1093Z" fill="#BDAE77" fill-opacity="0.27"/>
<path d="M972.326 32.7985C972.773 33.3815 973.017 34.1123 973.017 34.8664C973.017 35.6205 972.773 36.3513 972.326 36.9343L978.61 36.8927C978.179 36.3178 977.944 35.6028 977.944 34.8659C977.944 34.1289 978.179 33.4139 978.61 32.839L972.326 32.7985Z" fill="#BDAE77" fill-opacity="0.27"/>
<path d="M1033.26 33.2516C1033.53 33.7423 1033.67 34.2993 1033.67 34.8664C1033.67 35.4335 1033.53 35.9905 1033.26 36.4811L1036.58 36.4427C1036.32 35.9607 1036.19 35.418 1036.19 34.8662C1036.19 34.3144 1036.32 33.7717 1036.58 33.2897L1033.26 33.2516Z" fill="#BDAE77" fill-opacity="0.27"/>
<path d="M696.309 31.6628L675.741 31.6074C676.335 31.8821 676.841 32.3371 677.197 32.9163C677.552 33.4954 677.742 34.1733 677.742 34.8664C677.742 35.5594 677.552 36.2373 677.197 36.8165C676.841 37.3956 676.335 37.8506 675.741 38.1254L696.309 38.0695C695.736 37.7895 695.249 37.3385 694.908 36.7706C694.567 36.2026 694.386 35.5415 694.386 34.8662C694.386 34.1909 694.567 33.5298 694.908 32.9618C695.249 32.3938 695.735 31.9429 696.309 31.6628Z" fill="#BDAE77" fill-opacity="0.27"/>
<path d="M1004.55 33.0087C1004.91 33.5503 1005.11 34.2 1005.11 34.8665C1005.11 35.5329 1004.91 36.1826 1004.55 36.7242L1009.3 36.693C1008.95 36.1578 1008.76 35.52 1008.76 34.8665C1008.76 34.2129 1008.95 33.5752 1009.3 33.04L1004.55 33.0087Z" fill="#BDAE77" fill-opacity="0.27"/>
<path d="M758.088 31.8297L740.552 31.7827C741.082 32.0733 741.527 32.515 741.837 33.0591C742.148 33.6032 742.312 34.2286 742.312 34.8664C742.312 35.5042 742.148 36.1296 741.837 36.6737C741.527 37.2178 741.082 37.6595 740.552 37.9501L758.088 37.9032C757.576 37.6083 757.148 37.1703 756.849 36.6356C756.551 36.1008 756.393 35.4894 756.393 34.8664C756.393 34.2434 756.551 33.632 756.849 33.0973C757.148 32.5625 757.576 32.1245 758.088 31.8297Z" fill="#BDAE77" fill-opacity="0.27"/>
<path d="M826.695 25.2371C826.969 24.5665 827.189 23.8724 827.353 23.1622L782.401 23.0285C782.632 23.8367 782.935 24.6193 783.306 25.3655L826.695 25.2371Z" fill="#BDAE77" fill-opacity="0.27"/>
<path d="M772.853 25.3949C773.234 24.6321 773.545 23.8313 773.781 23.0039L723.229 22.8616C723.586 23.8032 724.043 24.698 724.59 25.5286L772.853 25.3949Z" fill="#BDAE77" fill-opacity="0.27"/>
<path d="M643.861 25.7564C644.622 24.8145 645.263 23.7687 645.768 22.6464L609.751 23.0286L625.378 25.8083L643.861 25.7564Z" fill="#BDAE77" fill-opacity="0.27"/>
<path d="M954.76 24.4864C954.776 24.3057 954.776 24.0991 954.786 23.9117L924.135 23.6582C924.174 24.0526 924.258 24.3772 924.323 24.7364L954.76 24.4864Z" fill="#BDAE77" fill-opacity="0.27"/>
<path d="M988.193 24.2114V24.1872L961.552 23.9677C961.562 24.1173 961.562 24.2862 961.571 24.4309L988.193 24.2114Z" fill="#BDAE77" fill-opacity="0.27"/>
<path d="M874.591 25.0962C874.745 24.5071 874.863 23.908 874.945 23.3026L835.157 23.1846C835.319 23.878 835.533 24.5559 835.799 25.2114L874.591 25.0962Z" fill="#BDAE77" fill-opacity="0.27"/>
<path d="M712.076 25.5651C712.641 24.7176 713.11 23.8015 713.474 22.836L656.694 22.676C657.189 23.7714 657.814 24.7933 658.555 25.7163L712.076 25.5651Z" fill="#BDAE77" fill-opacity="0.27"/>
<path d="M883.919 25.0684L917.038 24.7956C917.109 24.4016 917.2 24.0386 917.245 23.603L883.919 23.3285L882.208 23.3235C882.286 23.9132 882.398 24.4972 882.544 25.0719L883.919 25.0684Z" fill="#BDAE77" fill-opacity="0.27"/>
<path d="M724.59 44.2025C724.043 45.033 723.586 45.9278 723.229 46.8695L773.781 46.7272C773.545 45.8998 773.234 45.099 772.853 44.3362L724.59 44.2025Z" fill="#BDAE77" fill-opacity="0.27"/>
<path d="M783.306 44.3675C782.935 45.1137 782.632 45.8964 782.401 46.7048L827.353 46.5711C827.189 45.8609 826.969 45.1668 826.695 44.4962L783.306 44.3675Z" fill="#BDAE77" fill-opacity="0.27"/>
<path d="M658.555 44.0166C657.814 44.9396 657.189 45.9615 656.694 47.0569L713.474 46.8973C713.11 45.9316 712.641 45.0154 712.076 44.1677L658.555 44.0166Z" fill="#BDAE77" fill-opacity="0.27"/>
<path d="M961.552 45.7662L988.193 45.547V45.5228L961.571 45.3033C961.562 45.448 961.562 45.6165 961.552 45.7662Z" fill="#BDAE77" fill-opacity="0.27"/>
<path d="M924.323 44.996C924.258 45.3555 924.174 45.6801 924.135 46.0741L954.786 45.8206C954.776 45.6332 954.776 45.4266 954.76 45.246L924.323 44.996Z" fill="#BDAE77" fill-opacity="0.27"/>
<path d="M883.919 44.664L882.544 44.6608C882.398 45.2355 882.286 45.8195 882.208 46.4092L883.919 46.4039L917.245 46.1294C917.2 45.6938 917.109 45.3307 917.038 44.9367L883.919 44.664Z" fill="#BDAE77" fill-opacity="0.27"/>
<path d="M835.799 44.5219C835.534 45.1774 835.319 45.8553 835.157 46.5487L874.945 46.4307C874.863 45.8253 874.745 45.2262 874.591 44.6371L835.799 44.5219Z" fill="#BDAE77" fill-opacity="0.27"/>
<path d="M625.378 43.9246L610.656 46.7046L645.768 47.0865C645.264 45.9643 644.623 44.9186 643.862 43.9769L625.378 43.9246Z" fill="#BDAE77" fill-opacity="0.27"/>
<path d="M1047.64 26.1624C1047.64 32.1925 1045.14 34.8666 1039.52 34.8666C1045.14 34.8666 1047.64 37.5403 1047.64 43.5704C1047.64 37.5403 1050.14 34.8666 1055.77 34.8666C1050.14 34.8666 1047.64 32.1925 1047.64 26.1624Z" fill="#BDAE77" fill-opacity="0.27"/>
<path d="M1021.22 25.086C1021.22 31.8625 1018.41 34.8648 1012.08 34.8648C1018.41 34.8648 1021.22 37.8684 1021.22 44.6453C1021.22 37.8684 1024.02 34.8648 1030.35 34.8648C1024.02 34.8665 1021.22 31.8625 1021.22 25.086Z" fill="#BDAE77" fill-opacity="0.27"/>
<path d="M991.526 23.8757C991.526 31.491 988.375 34.8666 981.265 34.8666C988.375 34.8666 991.526 38.2419 991.526 45.8573C991.526 38.2419 994.68 34.8666 1001.79 34.8666C994.681 34.8666 991.526 31.4917 991.526 23.8757Z" fill="#BDAE77" fill-opacity="0.27"/>
<path d="M958.168 22.518C958.168 31.0746 954.627 34.8666 946.639 34.8666C954.627 34.8666 958.168 38.6587 958.168 47.2149C958.168 38.6587 961.711 34.8666 969.697 34.8666C961.711 34.8666 958.168 31.0746 958.168 22.518Z" fill="#BDAE77" fill-opacity="0.27"/>
<path d="M920.685 20.9917C920.685 30.6055 916.707 34.8665 907.733 34.8665C916.707 34.8665 920.685 39.1272 920.685 48.741C920.685 39.1272 924.666 34.8665 933.641 34.8665C924.666 34.8665 920.685 30.6055 920.685 20.9917Z" fill="#BDAE77" fill-opacity="0.27"/>
<path d="M878.573 19.2781C878.573 30.0796 874.102 34.8666 864.019 34.8666C874.102 34.8666 878.573 39.6535 878.573 50.455C878.573 39.6535 883.044 34.8666 893.127 34.8666C883.044 34.8666 878.573 30.0796 878.573 19.2781Z" fill="#BDAE77" fill-opacity="0.27"/>
<path d="M847.604 34.8664C836.279 34.8664 831.254 29.4873 831.254 17.3506C831.254 29.4873 826.228 34.8664 814.9 34.8664C826.228 34.8664 831.254 40.2454 831.254 52.3817C831.254 40.2454 836.279 34.8664 847.604 34.8664Z" fill="#BDAE77" fill-opacity="0.27"/>
<path d="M796.459 34.8665C783.731 34.8665 778.086 28.8214 778.086 15.1855C778.086 28.8207 772.442 34.8665 759.713 34.8665C772.442 34.8665 778.086 40.9115 778.086 54.547C778.086 40.9122 783.731 34.8665 796.459 34.8665Z" fill="#BDAE77" fill-opacity="0.27"/>
<path d="M738.992 34.8666C724.691 34.8666 718.346 28.0748 718.346 12.7531C718.346 28.0741 712.005 34.8666 697.704 34.8666C712.005 34.8666 718.346 41.6584 718.346 56.9798C718.346 41.6588 724.691 34.8666 738.992 34.8666Z" fill="#BDAE77" fill-opacity="0.27"/>
</svg>
