<svg width="51" height="40" viewBox="0 0 51 40" fill="none" xmlns="http://www.w3.org/2000/svg">
<path d="M15.8074 40C34.7977 40 45.1861 24.607 45.1861 11.2815C45.1861 10.8508 45.1861 10.4139 45.1672 9.98314C47.1897 8.55086 48.9353 6.77762 50.3221 4.7465C48.4329 5.56138 46.4308 6.09844 44.3809 6.34026C46.5402 5.07767 48.1574 3.0911 48.932 0.749785C46.9033 1.92549 44.6829 2.75083 42.3681 3.18965C40.8118 1.56828 38.7524 0.494161 36.509 0.133687C34.2655 -0.226787 31.9631 0.146499 29.9584 1.19572C27.9538 2.24495 26.3587 3.91155 25.4204 5.93739C24.482 7.96322 24.2527 10.2352 24.7679 12.4015C20.6627 12.2001 16.6466 11.1568 12.9801 9.33931C9.31358 7.52179 6.07855 4.97062 3.48481 1.85126C2.16807 4.07602 1.76622 6.70762 2.36088 9.21169C2.95554 11.7158 4.50211 13.9046 6.68655 15.3336C5.04963 15.2792 3.4487 14.8492 2.01288 14.0783V14.2168C2.01571 16.5473 2.84102 18.8055 4.34932 20.6095C5.85762 22.4136 7.95639 23.6528 10.2909 24.1178C9.40477 24.3566 8.48943 24.4756 7.57033 24.4716C6.92238 24.4735 6.27573 24.4148 5.63922 24.2962C6.29903 26.3024 7.58377 28.0565 9.31351 29.3128C11.0432 30.5691 13.1313 31.2646 15.2853 31.302C11.6262 34.1135 7.10611 35.6384 2.4532 35.631C1.63333 35.6344 0.814033 35.5882 0 35.4925C4.72246 38.4378 10.2069 40.0017 15.8074 40Z" fill="#515A5A"/>
</svg>
